<svg xmlns="http://www.w3.org/2000/svg" fill="none" aria-label="Zernio" class="w-auto h-6 -translate-y-[2.5px]" viewBox="0 0 3867 814"><path fill="#eb3514" d="M0 230.458V461.78l359.783-94.456c44.835-11.771 85.535 29.54 73.097 74.195L332.554 801.71H561.96l47.541-233.35a60.05 60.05 0 0 0-15.832-53.894L287.32 200.054a60.05 60.05 0 0 0-54.999-16.934zM805.069 801.699V686.515l294.361-391.059H829.243V177.428h447.937v116.606L985.667 683.671h319.953v118.028zM1626.29 813.075q-140.775 0-216.15-82.478-75.36-83.9-75.36-243.166c0-103.335 25.59-182.494 76.78-237.48 51.2-55.933 123.72-83.899 217.58-83.899 89.11 0 157.37 29.862 204.77 89.588q71.1 89.588 71.1 260.231v5.688h-399.59c0 60.674 10.9 106.652 32.71 137.937q34.125 45.505 96.69 45.505c56.89 0 92.91-24.648 108.08-73.945l153.58 12.798c-44.56 112.814-134.62 169.221-270.19 169.221m0-544.637c-37.92 0-67.31 13.272-88.16 39.817q-29.865 39.816-31.29 110.918h241.75c-2.85-50.245-15.17-87.692-36.98-112.34q-31.275-38.395-85.32-38.395M1968.58 801.699V323.897c0-34.129-.48-62.569-1.43-85.322-.94-22.752-1.89-43.135-2.84-61.147h153.58c.95 6.636 2.37 27.967 4.27 63.991q4.26 52.616 4.26 69.68h1.42q24.18-65.414 42.66-92.432c12.33-18.013 26.55-31.285 42.67-39.817q25.59-12.798 63.99-12.798 31.275 0 49.77 8.532v135.093c-26.55-5.688-49.3-8.532-68.26-8.532q-61.14 0-95.28 49.771-32.7 48.348-32.7 145.047v305.736zM2772.16 801.699V451.88c0-109.97-36.97-164.956-110.92-164.956-38.86 0-70.62 17.065-95.27 51.193q-35.55 49.772-35.55 129.405v334.177h-162.11v-483.49c0-33.181-.48-60.673-1.43-82.478-.94-21.804-1.89-41.239-2.84-58.303h153.58c.95 7.584 2.37 27.492 4.27 59.725q4.26 46.927 4.26 65.414h1.42c21.81-47.401 49.3-82.004 82.48-103.809s72.52-32.706 118.03-32.706q99.54 0 152.16 61.147 54.03 61.147 54.03 179.176v395.324zM3028.53 153.398V55.326L3190.64 0v98.072zm0 648.301V214.312l162.11-55.326v642.713zM3866.24 488.853q0 152.157-85.32 238.9c-55.94 56.882-133.2 85.322-231.79 85.322q-146.475 0-230.37-85.322c-54.99-57.829-82.48-137.462-82.48-238.9 0-100.49 27.49-179.176 82.48-236.057 55.93-57.83 133.67-86.744 233.21-86.744 101.44 0 179.18 27.966 233.21 83.899q81.06 82.478 81.06 238.902m-170.64 0c0-73.946-12.33-127.509-36.98-160.69-23.7-33.181-58.3-49.771-103.81-49.771-98.59 0-147.89 70.154-147.89 210.461q0 103.808 35.55 159.267c24.65 36.025 59.26 54.037 103.81 54.037 99.54 0 149.32-71.101 149.32-213.304"/></svg>