<?xml version="1.0" encoding="UTF-8"?>
<svg id="Calque_1" xmlns="http://www.w3.org/2000/svg" version="1.1" viewBox="0 0 120 77.8">
  <!-- Generator: Adobe Illustrator 29.7.1, SVG Export Plug-In . SVG Version: 2.1.1 Build 8)  -->
  <g>
    <polygon points="65 40.1 62.5 43.1 68.4 50.3 73.5 50.3 65 40.1" fill="#fff"/>
    <path d="M51.6,8.8h-17.6l17.2,20.7-17.2,20.7h17.5l17.2-20.8-17.2-20.7ZM42.3,12.7h7.5l14,16.8-14,16.8h-7.5l14-16.8-14-16.8h0Z" fill="#fff"/>
    <polygon points="65.1 18.9 62.5 15.9 68.4 8.8 73.5 8.8 65.1 18.9" fill="#fff"/>
    <polygon points="68.8 23.4 71.3 26.4 85.9 8.8 81 8.8 68.8 23.4" fill="#fff"/>
    <polygon points="81 50.3 86 50.3 71.3 32.5 68.8 35.6 81 50.3" fill="#fff"/>
  </g>
  <g>
    <path d="M12.7,58.3c-2,0-3.8.7-4.3,2.7,0,0-.9,3.7-1.1,4.2-.4,1.4.7,3.7,4.2,3.7.9,0,11,0,11.1,0,2,0,3.3-1.4,3.6-2.6l.7-2.9c.1-.4.3-1,.3-1.5,0-1.5-.9-3.6-4.1-3.6h-10.5s0,0,0,0ZM24.3,65.2h0c0,.4-.5,1.5-1.6,1.5h-10.4c-1.1,0-2.6,0-2.6-1.6,0-.3,0-.5.2-.8l.6-2.4c0-.2.4-1.4,1.5-1.4h10.3c1,0,2.8,0,2.7,1.6,0,.1,0,.4,0,.5l-.6,2.5h0Z" fill="#fff"/>
    <path d="M65,58.3h-13l-2.7,10.7h10.8c1.8,0,3.8,0,5-.3.9-.2,1.5-.4,2.1-.6.8-.4,1.4-.9,1.8-1.4,2.5-3.5,1.1-6.4,1.1-6.4-.8-1.5-2.7-2-5.1-2M66.9,65.4c-.3.3-.8.6-1.4.8-.4.2-.9.3-1.6.4-.9.1-2.4.2-3.8.2h-8l1.6-6.2h9.7c2.6,0,3.8.5,4.3,1.2,0,0,1.1,1.6-.8,3.6" fill="#fff"/>
    <path d="M109.2,66.8l.5-2.1h-2.6s.5-1.8.5-1.8h5l-1.5,6.1h-8.6c-3,0-5.7,0-7.5-1-.4-.2-.7-.5-.9-.8,0,0-.5-.6-.7-1.3l1.6-6.5c.1-.5.6-1,1.4-1h11.6c1.6,0,3.2,0,3.9.4.8.5.9,1.1.9,1.5,0,.2,0,.4,0,.4h-15.5c-.2,0-.4.2-.4.4l-1.2,4.6c1.4,1.4,4.3,1.2,4.3,1.2h9.4,0Z" fill="#fff"/>
    <path d="M77.5,58.3c-2,0-3.8.7-4.3,2.7,0,0-.9,3.7-1.1,4.2-.4,1.4.7,3.7,4.2,3.7.9,0,11,0,11.1,0,2,0,3.3-1.4,3.6-2.6l.7-2.9c.1-.4.3-1,.3-1.5,0-1.5-.9-3.6-4.1-3.6h-10.5s0,0,0,0ZM89,65.2h0c0,.4-.5,1.5-1.6,1.5h-10.4c-1.1,0-2.6,0-2.6-1.6,0-.3,0-.5.2-.8l.6-2.4c0-.2.4-1.4,1.5-1.4h10.3c1,0,2.8,0,2.7,1.6,0,.1,0,.4,0,.5l-.6,2.5h0Z" fill="#fff"/>
    <g>
      <path d="M33.4,58.3s3.4,3.6,4.4,4.7c.1.2.1.3.1.3,0,.1,0,.2-.3.3-1.6,1.2-7.5,5.3-7.5,5.3h-4l8.5-6-4.4-4.6h3.2Z" fill="#fff"/>
      <path d="M45.8,58.4s-5,3.5-6.7,4.8c-.2.1-.1.3,0,.4,0,0,5.1,5.5,5.1,5.5h3.2l-5-5.4,7.5-5.2h-3.9Z" fill="#fff"/>
    </g>
  </g>
</svg>