<?xml version="1.0" encoding="UTF-8"?>
<svg id="Calque_1" xmlns="http://www.w3.org/2000/svg" version="1.1" viewBox="0 0 120 77.8">
  <!-- Generator: Adobe Illustrator 29.7.1, SVG Export Plug-In . SVG Version: 2.1.1 Build 8)  -->
  <g>
    <path d="M31.1,34.6l-4.5,6.5v2h-1.6v-8.5h1.6v3.7l2.6-3.7h1.9ZM27.7,41l.6-1.9,2.8,4h-1.9l-1.4-2.1Z" fill="#fff"/>
    <path d="M34.6,38.1c.3.1.7.2,1,.4.3.1.5.3.8.5.2.2.4.4.5.7.1.3.2.6.2.9h0c0,.4,0,.8-.2,1.1-.1.3-.3.6-.6.8-.3.2-.5.4-.9.5-.3.1-.7.2-1.1.2s-.7,0-1.1-.1c-.3,0-.6-.2-.9-.4-.3-.2-.5-.3-.7-.6-.2-.2-.4-.4-.5-.6l1.3-.9c.1.2.3.3.4.5.1.1.3.2.4.3.2,0,.3.2.5.2.2,0,.4,0,.6,0s.3,0,.4,0c.1,0,.3,0,.4-.2.1,0,.2-.2.3-.3,0-.1.1-.2.1-.4s0-.2,0-.3c0-.1-.1-.2-.3-.3-.1-.1-.3-.2-.5-.3-.2,0-.5-.2-.8-.3-.4-.1-.7-.2-1.1-.4-.3-.1-.6-.3-.8-.5-.2-.2-.4-.4-.5-.7-.1-.3-.2-.6-.2-.9s0-.8.2-1.1c.1-.3.3-.6.6-.8s.5-.4.8-.5c.3-.1.7-.2,1-.2s.7,0,1,.1c.3,0,.6.2.8.4.2.1.5.3.6.5.2.2.3.4.5.5l-1.3.9c-.3-.3-.6-.6-.9-.7-.3-.1-.6-.2-.9-.2s-.3,0-.5,0c-.1,0-.2.1-.3.2,0,0-.2.2-.2.3,0,0,0,.2,0,.3,0,.2,0,.3.1.4,0,.1.2.2.3.3.1,0,.3.2.6.3.2,0,.5.2.8.2Z" fill="#fff"/>
    <path d="M45.7,41.6h-3.5l-.6,1.5h-1.6l3.1-8.5h1.6l-2,5.4h2.4l-1.1-2.9,1.2-1.2,2.6,7.1h-1.6l-.6-1.5Z" fill="#fff"/>
    <path d="M53.2,40.3c-.2,0-.3.2-.5.2-.2,0-.3,0-.6,0-.2,0-.5,0-.8,0-.3,0-.7,0-1.3,0v2.5h-1.6v-8.5h3.5c.4,0,.7,0,1.1.2.3.2.6.4.9.6.2.3.4.6.6,1,.1.4.2.8.2,1.2,0,.6-.1,1.1-.4,1.6-.3.5-.7.8-1.1,1.1ZM50.1,38.9h2c.3,0,.6-.1.8-.4.2-.3.3-.6.3-1s0-.3,0-.5c0-.2-.1-.3-.3-.4-.1-.1-.2-.2-.4-.3-.1,0-.3-.1-.5-.1h-2v2.7h0ZM55,43.1h-2l-1.2-1.6,1.3-.9,1.9,2.5Z" fill="#fff"/>
    <path d="M63.4,41.1c-.2.3-.4.6-.7.8s-.5.5-.9.6c-.3.2-.7.3-1,.4-.4,0-.7.1-1.1.1-.6,0-1.2-.1-1.7-.3-.5-.2-1-.5-1.4-.9-.4-.4-.7-.8-.9-1.4s-.3-1.1-.3-1.7.1-1.2.3-1.7.5-1,.9-1.4c.4-.4.8-.7,1.4-.9.5-.2,1.1-.3,1.7-.3s.8,0,1.1.1.7.2,1,.4c.3.2.6.4.9.6s.5.5.7.8l-1.4.9c-.2-.4-.5-.8-.9-1-.4-.3-.8-.4-1.3-.4s-.7,0-1,.2-.6.4-.8.6-.4.6-.6.9-.2.7-.2,1.1,0,.8.2,1.1.3.6.6.9.5.5.8.6.6.2,1,.2.9-.1,1.3-.4c.4-.3.7-.6.9-1l1.4.9Z" fill="#fff"/>
    <path d="M63.4,43.1v-8.5h1.7v8.5h-1.7ZM68.7,34.6h1.7v8.5h-1.7v-3.4h-2.6l-.8-1.6h3.4v-3.5Z" fill="#fff"/>
    <path d="M72.9,34.6v8.5h-1.7v-8.5h1.7Z" fill="#fff"/>
    <path d="M77.8,34.6v8.5h-1.7v-7h-2.5v-1.5h4.2ZM78,34.6h2.2v1.5h-1.5l-.7-1.5Z" fill="#fff"/>
    <path d="M86.4,34.6v1.4s-4,0-4,0v5.6s4,0,4,0v1.4h-5.7v-8.5h5.7ZM85.4,39.7h-1.9l-.8-1.6h2.7v1.6Z" fill="#fff"/>
    <path d="M94.1,41.1c-.2.3-.4.6-.7.8s-.5.5-.9.6c-.3.2-.7.3-1,.4-.4,0-.7.1-1.1.1-.6,0-1.2-.1-1.7-.3-.5-.2-1-.5-1.4-.9-.4-.4-.7-.8-.9-1.4s-.3-1.1-.3-1.7.1-1.2.3-1.7.5-1,.9-1.4c.4-.4.8-.7,1.4-.9.5-.2,1.1-.3,1.7-.3s.8,0,1.1.1.7.2,1,.4c.3.2.6.4.9.6s.5.5.7.8l-1.4.9c-.2-.4-.5-.8-.9-1-.4-.3-.8-.4-1.3-.4s-.7,0-1,.2-.6.4-.8.6-.4.6-.6.9-.2.7-.2,1.1,0,.8.2,1.1.3.6.6.9.5.5.8.6.6.2,1,.2.9-.1,1.3-.4c.4-.3.7-.6.9-1l1.4.9Z" fill="#fff"/>
    <path d="M98,34.6v8.5h-1.6v-7h-2.2v-1.5h3.8ZM98.3,34.6h2v1.5h-1.3l-.7-1.5Z" fill="#fff"/>
    <path d="M106.1,34.6v1.4s-3.6,0-3.6,0v5.6s3.6,0,3.6,0v1.4h-5.2v-8.5h5.2ZM105.2,39.7h-1.7l-.7-1.6h2.4v1.6Z" fill="#fff"/>
    <path d="M110.2,38.1c.4.1.7.2,1,.4.3.1.6.3.8.5.2.2.4.4.5.7.1.3.2.6.2.9h0c0,.4,0,.8-.2,1.1-.1.3-.4.6-.6.8-.3.2-.6.4-.9.5-.4.1-.7.2-1.2.2s-.8,0-1.1-.1-.7-.2-1-.4c-.3-.2-.5-.3-.8-.6-.2-.2-.4-.4-.5-.6l1.3-.9c.1.2.3.3.4.5.1.1.3.2.5.3.2,0,.3.2.5.2.2,0,.4,0,.6,0s.3,0,.4,0c.1,0,.3,0,.4-.2.1,0,.2-.2.3-.3,0-.1.1-.2.1-.4s0-.2,0-.3c0-.1-.1-.2-.3-.3-.1-.1-.3-.2-.5-.3-.2,0-.5-.2-.8-.3-.4-.1-.8-.2-1.1-.4-.3-.1-.6-.3-.8-.5-.2-.2-.4-.4-.5-.7-.1-.3-.2-.6-.2-.9s0-.8.2-1.1c.1-.3.3-.6.6-.8.3-.2.5-.4.9-.5.3-.1.7-.2,1.1-.2s.8,0,1.1.1c.3,0,.6.2.9.4.3.1.5.3.7.5.2.2.4.4.5.5l-1.3.9c-.3-.3-.6-.6-.9-.7-.3-.1-.6-.2-.9-.2s-.4,0-.5,0c-.1,0-.3.1-.4.2,0,0-.2.2-.2.3,0,0,0,.2,0,.3,0,.2,0,.3.1.4,0,.1.2.2.4.3.2,0,.4.2.6.3.2,0,.5.2.8.2Z" fill="#fff"/>
  </g>
  <path d="M15.7,37.2v-7.1l-8.4,7.2h0v8.6l2.3-4.2,5.9,6.1,5.8-10.6h-5.6ZM9.5,41.3l-2.1,3.7v-7.7l8-6.8-5.4,10h5.4v6.9h0s-5.9-6.1-5.9-6.1Z" fill="#fff"/>
</svg>