<?xml version="1.0" encoding="UTF-8"?>
<svg id="Calque_1" xmlns="http://www.w3.org/2000/svg" version="1.1" viewBox="0 0 120 77.8">
  <!-- Generator: Adobe Illustrator 29.7.1, SVG Export Plug-In . SVG Version: 2.1.1 Build 8)  -->
  <path d="M18.4,47.2c-.3,1.4-1.5,2.7-3.4,2.7s-3.5-1.9-3.5-3.5,1.1-3.6,3.5-3.6,3.1,1.3,3.4,2.6h4.2c-.5-2.9-2.9-5.9-7.7-5.9-5.2,0-7.7,3.7-7.7,6.9s2.4,6.9,7.7,6.9,7.2-3.1,7.7-6h-4.2Z" fill="#fff"/>
  <path d="M31.3,39.5c-5.2,0-7.7,3.7-7.7,6.9s2.4,6.9,7.7,6.9,7.7-3.7,7.7-6.9-2.4-6.9-7.7-6.9h0ZM31.3,49.9c-2.4,0-3.5-1.9-3.5-3.5s1.1-3.6,3.5-3.6,3.6,1.9,3.6,3.6-1.1,3.5-3.6,3.5Z" fill="#fff"/>
  <path d="M52.3,47.5s0,0,0,0c2.3-.6,3.2-2.3,3.2-3.9,0-2-1.4-4.2-4.8-4.2h-10.6v13.2h4.1v-5h3.6l3.5,5h4.6l-3.6-5.2h0ZM50.7,44.5h-6.6v-1.8h6.6c.6,0,1,.4,1,.9s-.5.9-1,.9h0Z" fill="#fff"/>
  <path d="M68.2,39.5v7.4l-7.4-7.4h-3.4v13.2h4v-7.5l7.4,7.5h3.5v-13.2h-4Z" fill="#fff"/>
  <path d="M89.2,42.7v-3.2h-14.9v13.2h14.9v-3.2h-10.7v-1.8h8v-3.2h-8v-1.8h10.7Z" fill="#fff"/>
  <path d="M103.4,47.5s0,0,0,0c2.3-.6,3.2-2.3,3.2-3.9s-1.4-4.2-4.8-4.2h-10.6v13.2h4.1v-5h3.6l3.5,5h4.6l-3.6-5.2h0ZM101.9,44.5h-6.6v-1.8h6.6c.6,0,1,.4,1,.9s-.5.9-1,.9h0Z" fill="#fff"/>
  <path d="M110.4,53c1.3,0,2.3-1,2.3-2.3s-1-2.3-2.3-2.3-2.3,1-2.3,2.3,1,2.3,2.3,2.3Z" fill="#fff"/>
  <g>
    <path d="M7.3,24.8h9.8v1.4h-8.3v3.5h6.1v1.4h-6.1v4.9h-1.5v-11.1Z" fill="#fff"/>
    <path d="M19.8,24.8h1.5v9.7h6.6v1.4h-8.1v-11.1h0Z" fill="#fff"/>
    <path d="M29.3,30.3c0-2.9,1.9-5.8,5.3-5.8s5.4,2.8,5.4,5.8-1.9,5.8-5.4,5.8-5.3-2.8-5.3-5.8ZM38.4,30.3c0-2.1-1.4-4.3-3.8-4.3s-3.7,2.1-3.7,4.3,1.3,4.3,3.7,4.3c2.4,0,3.8-2.1,3.8-4.3Z" fill="#fff"/>
    <path d="M42.1,30.3c0-2.9,1.9-5.8,5.3-5.8s5.4,2.8,5.4,5.8-1.9,5.8-5.4,5.8-5.3-2.8-5.3-5.8ZM51.2,30.3c0-2.1-1.4-4.3-3.8-4.3s-3.7,2.1-3.7,4.3,1.3,4.3,3.7,4.3,3.8-2.1,3.8-4.3Z" fill="#fff"/>
    <path d="M55.5,35.8v-11.1h7.5c2,0,2.9,1.5,2.9,3.1s-.8,3-2.6,3.1c-.2,0-.3,0-.5,0l2.8,4.9h-1.7l-2.8-4.9h-4.3v4.9h-1.5ZM57,29.6h6.1c1,0,1.4-.8,1.4-1.7s-.5-1.8-1.4-1.8h-6.1v3.5Z" fill="#fff"/>
    <path d="M68.7,35.8v-11.1h6.9c1.9,0,2.9,1.4,2.9,3.1s-.3,1.8-1.1,2.4c1,.4,1.6,1.6,1.6,2.5,0,1.7-1,3.1-3,3.1h-7.3ZM70.2,29.6h5.4c1,0,1.4-.8,1.4-1.7s-.5-1.8-1.4-1.8h-5.4v3.5ZM70.2,34.5h5.9c1,0,1.5-.8,1.5-1.7s-.5-1.8-1.5-1.8h-5.9v3.5Z" fill="#fff"/>
    <path d="M80.6,35.8l4.8-11.1h1.6l4.9,11.1h-1.6l-1.3-3h-5.6l-1.2,3h-1.6ZM83.9,31.6h4.6l-2.3-5.3-2.3,5.3Z" fill="#fff"/>
    <path d="M94.1,24.8h1.5v9.7h6.6v1.4h-8.1v-11.1h0Z" fill="#fff"/>
    <path d="M104.7,24.8h1.5v9.7h6.6v1.4h-8.1v-11.1Z" fill="#fff"/>
  </g>
</svg>