<?xml version="1.0" encoding="UTF-8"?>
<svg id="Calque_1" xmlns="http://www.w3.org/2000/svg" version="1.1" viewBox="0 0 200 129.7">
  <!-- Generator: Adobe Illustrator 29.7.1, SVG Export Plug-In . SVG Version: 2.1.1 Build 8)  -->
  <g>
    <path d="M77.2,59.4c-1.1,0-1.9.4-2.5,1.2s-1,2-1.2,3.6h0v10.4c0,.1-.1.3-.3.3h-5.1c-.1,0-.3-.1-.3-.3v-11.5c0-2.4-1-3.6-3.1-3.6s-1.9.4-2.5,1.2c-.6.8-1,2.1-1.2,3.8h0v10.2c0,.1-.1.3-.3.3h-5.1c-.1,0-.3-.1-.3-.3v-19.3c0-.1.1-.3.3-.3h5.3c0,0,.1,0,.2,0,.3.2,1.6,1.1,2.4.5.9-.7,2.1-1,3.6-1s2.7.3,3.8,1c.9.6,1.6,1.4,2.1,2.5,0,.2.4.2.5,0,1.4-2.3,3.4-3.5,6.2-3.5s3.5.6,4.7,1.8,1.8,2.9,1.8,5.2v13c0,.1-.1.3-.3.3h-5.1c-.1,0-.3-.1-.3-.3v-11.5c0-2.4-1-3.6-3.1-3.6h0Z" fill="#fff"/>
    <path d="M91.2,74.1c-1.3-.7-2.3-1.9-3.1-3.4-.8-1.5-1.1-3.4-1.1-5.7s.4-4.2,1.1-5.8c.8-1.6,1.8-2.7,3-3.5,1.3-.8,2.6-1.2,4.1-1.2s2.7.4,3.8,1.1c.9.6,1.8-.3,2.1-.6,0,0,.1,0,.2,0h5.3c.1,0,.3.1.3.3v19.3c0,.1-.1.3-.3.3h-5.1c-.1,0-.3-.1-.3-.3v-2.6h0c-1.1,2.2-3,3.3-5.7,3.3s-3-.4-4.3-1.1h0ZM94,68.9c.8.9,1.8,1.3,3.1,1.3s2.1-.4,2.9-1.1,1.2-1.9,1.3-3.7v-1.1h0c0-1.6-.5-2.8-1.3-3.6-.8-.8-1.7-1.2-2.9-1.2s-2.3.5-3.1,1.5-1.2,2.4-1.2,4.1.4,3,1.2,3.8h0Z" fill="#fff"/>
    <path d="M109.8,52.5c-.7-.7-1-1.4-1-2.4s.3-1.7,1-2.4c.7-.6,1.4-1,2.4-1s1.7.3,2.4,1c.6.6,1,1.4,1,2.4s-.3,1.7-1,2.4-1.4,1-2.4,1-1.7-.3-2.4-1ZM109.6,55h5.1c.1,0,.3.1.3.3v19.3c0,.1-.1.3-.3.3h-5.1c-.1,0-.3-.1-.3-.3v-19.3c0-.1.1-.3.3-.3Z" fill="#fff"/>
    <path d="M117.8,44.9h5.1c.1,0,.3.1.3.3v29.3c0,.1-.1.3-.3.3h-5.1c-.1,0-.3-.1-.3-.3v-29.3c0-.1.1-.3.3-.3Z" fill="#fff"/>
    <path d="M127.5,74.8c-1.2-.2-2.1-.6-2.7-.9,0,0-.1-.1-.1-.2v-4.4c0-.2.3-.3.5-.2.4.3,1.1.6,1.9.8,1.3.4,2.7.6,4.2.6s2.2-.2,2.7-.5.8-.8.8-1.4-.3-1-.8-1.2c-.6-.3-1.4-.6-2.6-.8-1.3-.4-2.5-.7-3.3-1.1-.9-.4-1.6-1-2.3-1.8-.6-.8-1-1.9-1-3.2s.6-3.3,1.9-4.3c1.3-1,3.2-1.5,5.9-1.5s4.5.5,5.8,1.5c0,0,.1.1.1.2v3.9c-.1.2-.4.3-.6.2-.4-.4-1-.7-1.8-1-1.1-.4-2.3-.6-3.6-.6s-2.7.5-2.7,1.4.2.9.7,1.1c.5.3,1.3.6,2.5,1,1.3.4,2.4.8,3.3,1.2.9.4,1.7,1.1,2.3,1.9.6.9,1,2,1,3.4,0,2-.7,3.6-2.1,4.7-1.4,1.1-3.4,1.7-6.2,1.7s-2.7-.1-4-.4h0Z" fill="#fff"/>
    <path d="M143.7,59.1h-3.3c-.1,0-.3-.1-.3-.3v-3.6c0-.1.1-.3.3-.3h3.3c.1,0,.3-.1.3-.3v-5.4c0-.1.1-.3.2-.3l4.9-.6c.2,0,.3.1.3.3v6.1c0,.1.1.3.3.3h3.5c.1,0,.3.1.3.3v3.6c0,.1-.1.3-.3.3h-3.2c-.1,0-.3.1-.3.3v15.1c0,.1-.1.3-.3.3h-5.2c-.1,0-.3-.1-.3-.3v-15.1c0-.1-.1-.3-.3-.3h0Z" fill="#fff"/>
    <path d="M154.9,55h5.3c0,0,.2,0,.2,0,.3.3,1.2,1.4,2,.7.9-.8,2-1.2,3.3-1.2s1.2,0,1.6.3c0,0,.2.1.2.2v5.4c0,.2-.2.3-.4.2-.7-.3-1.5-.5-2.5-.5s-2,.3-2.7.9c-.8.6-1.2,1.6-1.5,3,0,0,0,0,0,0v10.4c0,.1-.1.3-.3.3h-5.1c-.1,0-.3-.1-.3-.3v-19.3c0-.1.1-.3.3-.3h0Z" fill="#fff"/>
    <path d="M172.8,74c-1.5-.8-2.7-1.9-3.6-3.5-.9-1.5-1.3-3.4-1.3-5.5s.4-4,1.3-5.6,2.1-2.8,3.6-3.6c1.5-.8,3.2-1.2,5-1.2s3.5.4,5.1,1.2,2.7,2,3.6,3.6c.9,1.6,1.3,3.4,1.3,5.6s-.4,4-1.3,5.5c-.9,1.5-2.1,2.7-3.6,3.5-1.5.8-3.2,1.2-5.1,1.2s-3.6-.4-5.1-1.2h0ZM181,68.9c.8-.9,1.2-2.2,1.2-3.9s-.4-3.1-1.2-4-1.8-1.4-3.1-1.4-2.3.5-3.1,1.4-1.2,2.3-1.2,4,.4,3,1.2,3.9,1.8,1.3,3.1,1.3,2.4-.4,3.1-1.3h0Z" fill="#fff"/>
  </g>
  <g>
    <path d="M18.1,45h.3c.2,0,.4,0,.6,0,5.8.4,16,1.3,21.9,1.8,3.1.3,4.5,2.9,4.5,5.7v8.2c0,1.5-.1,2.7-1.1,4-3.3,4.8-8.9,13-12.2,17.8-.9,1.5-2.5,2.3-4.2,2.3s-1.6-.2-2.4-.6c-.7-.4-1.3-1-1.7-1.7l-.3-.5c-.8-1.7-1.2-3.5-1.1-5.2v-7.2c-2,0-4-.9-5.4-2.4-.6-.6-1.6-2.4-1.9-3.2-.3-.5-1-2-1.2-2.5-.3-.7-.3-1.5-.3-2.3v-8.7c0-1.7.6-3.5,2-4.5.8-.6,1.7-.9,2.6-1M23.7,82.4h0M18,43.6h0c-1.2,0-2.4.5-3.3,1.2-1.6,1.2-2.5,3.2-2.5,5.5v8.7c0,.9,0,1.9.4,2.8.1.4.4,1,.8,1.7.2.3.3.6.4.8.3.5,1.3,2.7,2.1,3.5,1.3,1.4,3.1,2.4,5,2.7v6c0,2,.4,4,1.2,5.8h0s0,0,0,0l.3.5h0s0,0,0,0c.6.9,1.3,1.6,2.2,2.1.9.5,2,.8,3,.8,2.2,0,4.1-1.1,5.3-2.9,1.9-2.7,4.5-6.6,7.1-10.3,1.9-2.8,3.7-5.4,5.1-7.5,1.3-1.6,1.4-3.2,1.4-4.7v-8.2c0-3.9-2.3-6.7-5.7-7h0c-2.6-.2-5.9-.5-9.5-.8-4.5-.4-9.1-.8-12.4-1-.2,0-.4,0-.7,0h-.4Z" fill="#fff"/>
    <path d="M43.7,52.6c-.1.5-.5,1-.8,1.4-3,4.3-8.7,12.4-11.7,16.7-.2.3-.8,1.2-1,1.4-.6.7-1.5,1.1-2.4,1.1-.5,0-1.1-.1-1.6-.4-.5-.3-.9-.7-1.2-1.3,0,0,0,0,0,0,0,0,0,0,0-.1-.7-1.4-1.1-3-1.1-4.6,0-2.5.9-5.1,2.4-7.1.9-1.1,1.9-2.1,3.2-3l-1.1.5-3.2,1.3c-.7.3-1.4.4-2.1.4-.8,0-1.6-.1-2.4-.4-1.2-.4-2.2-1.2-3-2.2,0,0,0,0,0,0-.4-.5-2.2-4.5-2.2-4.5-.3-.6-.5-1-.5-1.6-.2-1.7,1.1-3.4,2.8-3.6h.3c.2,0,.5,0,.7,0,5.9.4,15.9,1.2,21.9,1.6,2.1.1,3.6,2.4,3,4.4h0Z" fill="#fff"/>
  </g>
</svg>