<?xml version="1.0" encoding="UTF-8"?>
<svg id="Calque_1" xmlns="http://www.w3.org/2000/svg" version="1.1" viewBox="0 0 66 42.8">
  <!-- Generator: Adobe Illustrator 29.7.1, SVG Export Plug-In . SVG Version: 2.1.1 Build 8)  -->
  <defs>
    <style>
      .st0 {
        fill: #fff;
      }
    </style>
  </defs>
  <polygon class="st0" points="25.8 38.2 26.4 38.2 26.8 34.9 26.2 34.9 25.8 38.2"/>
  <path class="st0" d="M30.7,34.9l-1.3,2.2-.8-2.1c0,0,0,0-.1,0h-.5l-.4,3.3h.6l.3-2.4.7,1.9s0,0,0,0h.3s0,0,0,0l1.1-1.9-.3,2.4h.5l.4-3.3h-.5s0,0-.1,0Z"/>
  <path class="st0" d="M35.1,34.9l-1.3,2.2-.8-2.1c0,0,0,0-.1,0h-.5l-.4,3.3h.6l.3-2.4.7,1.9s0,0,0,0h.3s0,0,0,0l1.1-1.9-.3,2.4h.5l.4-3.3h-.5s0,0-.1,0Z"/>
  <path class="st0" d="M54.7,34.9l-1.3,2.2-.8-2.1c0,0,0,0-.1,0h-.5l-.4,3.3h.6l.3-2.4.7,1.9s0,0,0,0h.3s0,0,0,0l1.1-1.9-.3,2.4h.5l.4-3.3h-.5s0,0-.1,0Z"/>
  <path class="st0" d="M38.2,34.8c-1.1,0-1.8,1-1.8,1.9s.5,1.5,1.4,1.5,1.8-.9,1.8-1.8-.5-1.6-1.4-1.6ZM37.9,37.7c-.7,0-.9-.5-.9-1.1s.4-1.3,1.1-1.3.8.6.8,1.1-.4,1.3-1.1,1.3Z"/>
  <path class="st0" d="M46.7,34.9h-1.2l-.4,3.3h1.3c.5,0,1.7-.3,1.7-1.8s-.4-1.5-1.3-1.5ZM46.3,37.7h-.6l.3-2.4h.5c.7,0,.8.5.8,1.1,0,1.1-.7,1.3-1.1,1.3Z"/>
  <polygon class="st0" points="48.9 36.8 48.7 38.2 50.7 38.2 50.7 37.7 49.4 37.7 49.5 36.8 50.5 36.8 50.6 36.3 49.6 36.3 49.7 35.3 51 35.3 51.1 34.9 49.1 34.9 48.9 36.8"/>
  <polygon class="st0" points="41.7 37 42.8 37 42.9 36.6 41.8 36.6 41.7 37"/>
  <path class="st0" d="M56,21.9l-2.1-3.4c-.8-1.3-2.1-1.4-2.6-1.4h-2.7l.2-.8c.2-.8-.2-1.6-1-1.9h0c-.9-.4-1.9,0-2.4.9l-3.6,6.6-.9-6.1c-.1-.9-.9-1.5-1.7-1.5h-.2c-.9,0-1.8.7-1.9,1.6l-.9,4.9-1.3,6.2h2.9l.9-4.6c0-.3,0-.5.1-.8l.3-3.4,1.1,6.8c0,.4.4.8.9.8s.5-.1.7-.4l1.6-2.7,2.5-4.5-1,3.3c0,.2,0,.3-.1.5l-.9,4.3c-1.2.3-2.1,1.3-2.5,2.6h-16.9c-.2-.9-.7-1.7-1.5-2.2l1.4-2.6h4.5v2.9h3.3l-1.1-11.1c0-.9-.9-1.6-1.8-1.7l4.3-8.3c.2-.5,0-1-.4-1.2-.4-.2-1,0-1.2.4l-4.7,9.1h-4c-.5,0-.9.4-.9.8,0,.5.4,1,.9,1h3l-5.3,10.2c-1.4.1-2.7,1.1-3.2,2.7h-6.8c-.5,0-.9.4-.9.9s.4.9.9.9h6.7c.2,1.3,1.1,2.3,2.3,2.7,1.8.5,3.7-.7,4.3-2.6,0,0,0,0,0,0h16.8c.2,1.3,1.1,2.3,2.3,2.7,1.8.5,3.7-.7,4.3-2.6,0,0,0,0,0,0h4.9c1.6,0,2.8-1.2,3.2-2.6l.8-2.8c.4-1.2,0-2.4-.7-3.6ZM25.6,21.7l2.9-5.1s0,0,0,0v5.1c.1,0-3,0-3,0h0ZM22.6,30.4c-.3,1.1-1.3,1.7-2.1,1.5-.9-.3-1.3-1.3-1-2.4s1.3-1.7,2.1-1.5c.9.3,1.3,1.3,1,2.4ZM46.1,30.4c-.3,1.1-1.3,1.7-2.1,1.5-.9-.3-1.3-1.3-1-2.4s1.3-1.7,2.1-1.5c.9.3,1.3,1.3,1,2.4ZM54.9,24.9l-.8,2.8c-.3,1.1-1.1,1.3-1.4,1.3h-4.9c-.2-.8-.6-1.5-1.2-2l1.6-7.9h3.1c.7,0,.8.2,1,.5l2.1,3.4c.7,1.1.6,1.6.5,2Z"/>
  <path class="st0" d="M13.9,22.8s6.3.7,7.1-3.9c.8-4.6-3.1-4.7-5-4.7s-3.6.2-4.1,2.7-2,10-2,10h3.1l.8-4.1ZM14.9,18s.2-1.3,1.5-1.2h.5c.2,0,.4.1.5.2.3.2.7.5.7,1.1,0,1.1-.1,2.5-3.6,2.3,0,0,.3-1.8.5-2.4Z"/>
</svg>