<?xml version="1.0" encoding="UTF-8"?>
<svg id="Calque_1" xmlns="http://www.w3.org/2000/svg" version="1.1" viewBox="0 0 120 77.8">
  <!-- Generator: Adobe Illustrator 29.7.1, SVG Export Plug-In . SVG Version: 2.1.1 Build 8)  -->
  <defs>
    <style>
      .st0 {
        fill: #fff;
      }
    </style>
  </defs>
  <path class="st0" d="M74.2,54.1c-.2-.4-.4-.8-.5-1.3.5,0,1-.1,1.5-.2.4-.1.9-.3,1.1-.7.2-.3.3-.6.3-1,0-.3,0-.5,0-.8-.2.2-.4.3-.7.5-.7.5-1.5.6-2.4.4-.9-.2-1.5-.8-1.9-1.7-.3-.5-.4-1.1-.5-1.7,0-.8-.1-1.5,0-2.3.1-1,.5-2,1.3-2.7.7-.6,1.6-.9,2.5-.7.7.1,1.2.4,1.7,1v-.8h1.7c0,0,0,.1,0,.2,0,2.7,0,5.4,0,8.1,0,.8,0,1.7-.6,2.4-.4.7-1,1.1-1.8,1.3-.6.2-1.2.3-1.8.2h0ZM76.6,46.4c0-.6,0-1.1,0-1.7,0,0,0-.2,0-.3-.3-.4-.7-.7-1.2-.9-.9-.4-1.9-.1-2.3.7-.2.4-.3.9-.4,1.4,0,.5,0,1,0,1.4,0,.5.2.9.4,1.4.3.6.8.9,1.5.9.8,0,1.4-.5,1.9-1.1,0,0,0-.2,0-.2v-1.7h0ZM31.2,24.2c1.7,0,3.3,0,5,0,.7,0,1.3.2,1.9.5.8.5,1.3,1.2,1.5,2.1.2,1,.2,2-.3,3-.5,1-1.3,1.5-2.4,1.7-.6.1-1.2,0-1.8,0-.7,0-1.4,0-2.2,0v4.4h-1.7v-11.9ZM32.9,30h1.1c.8,0,1.5,0,2.3,0,.8,0,1.3-.5,1.5-1.2,0-.3,0-.6,0-.9,0-1-.6-1.9-1.7-1.9-1.1,0-2.2,0-3.3,0s0,0,0,0v4h0ZM81.3,30.6c0-.3,0-.7,0-1,0-.5-.5-.9-1.1-1-1-.2-1.9,0-2.8.5-.2-.4-.4-.9-.7-1.3.5-.4,1.1-.6,1.7-.7.5,0,1-.1,1.6,0,.9,0,1.7.3,2.3,1,.4.5.6,1.1.6,1.7,0,2.1,0,4.2,0,6.3h-1.7v-.8c-.4.2-.7.5-1.1.7-.8.4-1.7.4-2.6,0-.9-.4-1.4-1-1.6-2-.2-.8,0-1.6.4-2.4.4-.6,1-.9,1.6-1.1.6-.2,1.2-.2,1.8-.1.5,0,1,.2,1.5.2h0s0,0,0,0ZM81.3,32.9c0-.1,0-.3,0-.4,0-.2,0-.3-.2-.3-.4,0-.7-.2-1.1-.3-.5,0-1.1,0-1.6.2-.5.2-.8.6-.8,1.2,0,.6.2,1.1.8,1.3.9.3,1.7.1,2.4-.4.3-.3.6-.6.5-1.1,0,0,0,0,0,0h0ZM111.1,48.7c.3.4.7.7,1,1.1-.7.7-1.4,1.1-2.4,1.1-.3,0-.6,0-.8,0-.8,0-1.6-.4-2.2-1-.7-.7-1.1-1.6-1.3-2.6,0-.7,0-1.4,0-2.1,0-.7.3-1.4.7-2.1.5-.9,1.3-1.4,2.2-1.6,1-.2,2,0,2.9.6.8.6,1.1,1.4,1.4,2.3.2.8.1,1.5.1,2.3h-5.7c0,.7.4,1.7,1.1,2.2.8.5,1.9.3,2.9-.4h0ZM111.1,45.5c0-.7-.2-1.3-.7-1.8-.4-.4-1-.5-1.5-.5-1,0-1.9,1.3-1.7,2.2h4,0ZM55.9,48.7c.3.4.7.7,1,1.1-.3.4-.8.6-1.2.8-.6.3-1.3.4-2,.3-.7,0-1.3-.3-1.9-.7-.9-.7-1.3-1.6-1.5-2.7-.1-.7-.1-1.4,0-2,0-.9.3-1.8.9-2.5.5-.7,1.2-1.1,2-1.3,1-.2,2,0,2.9.6.8.6,1.2,1.4,1.4,2.4.2.7.1,1.5.1,2.2h-5.7c.1.9.3,1.7,1.1,2.1,1,.6,2,.3,2.9-.4h0ZM55.9,45.5c0-1.4-.7-2.2-2.1-2.2-1,0-1.9,1.1-1.8,2.2h3.9,0ZM87.2,47h-5.7c0,1,.8,2.3,1.8,2.4.7,0,1.4,0,2-.5.2-.1.3-.2.4,0,.2.3.5.6.9,1-.3.2-.7.5-1,.7-.4.3-1,.4-1.5.4-.8.1-1.5,0-2.2-.4-.7-.4-1.1-.9-1.5-1.6-.4-.8-.6-1.6-.6-2.5,0-.8,0-1.5.3-2.3.5-1.4,1.4-2.3,2.8-2.5,1.1-.2,2.2,0,3,.8.5.5.8,1.1,1,1.8.2.6.3,1.3.2,2,0,.2,0,.4,0,.6h0s0,0,0,0ZM85.6,45.5c-.1-1.9-1.1-2.3-2.2-2.2-1,0-1.9,1.2-1.7,2.2h3.9ZM48.3,31.5c0,.9-.2,1.7-.5,2.5-.4.8-1,1.5-1.9,1.9-.6.3-1.2.4-1.9.3-.7,0-1.3-.3-1.9-.8-.9-.7-1.3-1.7-1.5-2.7-.2-1.2-.1-2.4.3-3.5.5-1.2,1.4-2,2.6-2.2,1.2-.2,2.4,0,3.3.9.6.6,1,1.3,1.2,2.2,0,.4.1.9.2,1.3h0ZM46.5,31.5c0-.1,0-.3,0-.5,0-.6-.3-1.2-.7-1.7-.5-.6-1.2-.7-1.9-.6-.7.2-1.1.7-1.4,1.3-.2.6-.3,1.3-.3,2,0,.4.1.9.3,1.3.3.7.8,1.2,1.6,1.3.7,0,1.4-.2,1.8-.9.4-.6.6-1.4.6-2.2h0ZM37.2,50.8h-1.7v-8.9h1.7v.8c.3-.4.6-.6,1-.8.5-.2,1.1-.2,1.6-.2.5,0,.9.2,1.3.5.6.4.9,1.1,1.1,1.8.1.5.2,1.1.2,1.7,0,1.7,0,3.4,0,5.1h-1.7v-.2c0-1.6,0-3.2,0-4.8,0-.5,0-.9-.2-1.3-.3-.9-1.2-1.2-2.1-1-.7.2-1.1.9-1.2,1.4,0,.3,0,.7,0,1,0,1.5,0,3.1,0,4.6v.3s0,0,0,0ZM90.5,50.8h-1.7v-8.9h1.7v.7c0,0,.2,0,.2-.1.3-.4.8-.6,1.3-.7.7-.2,1.4-.1,2.1.2.9.4,1.4,1.2,1.6,2.2.1.6.1,1.2.2,1.8,0,1.5,0,3.1,0,4.6v.2h-1.7v-.3c0-1.6,0-3.2,0-4.8,0-.5,0-1.1-.3-1.6-.2-.5-.6-.7-1.1-.8-.5,0-.9,0-1.3.2-.5.3-.7.8-.8,1.3,0,.1,0,.3,0,.4,0,1.8,0,3.6,0,5.4,0,0,0,0,0,0h0s0,0,0,0ZM73.9,29.7c-.4-.3-.7-.6-1.1-.8-1.1-.6-2.3-.2-2.8,1-.4,1.2-.4,2.4.1,3.6.5,1.1,1.9,1.4,2.9.6.3-.2.5-.4.7-.7.3.4.7.8,1.1,1.2-.6.8-1.4,1.4-2.5,1.6-1,.1-1.8,0-2.6-.7-.8-.7-1.3-1.6-1.5-2.6,0-.5-.2-1-.1-1.4,0-.8.2-1.6.5-2.4.5-1.1,1.4-1.9,2.6-2.1,1.4-.2,2.6.2,3.6,1.3,0,.1.1.2,0,.3-.3.4-.6.7-.9,1.1h0s0,0,0,0ZM103.1,44.5c-.4-.4-.7-.7-1.2-.9-1.1-.4-2.1-.2-2.6,1-.5,1.1-.4,2.3,0,3.5.5,1.3,1.9,1.6,2.9.8.3-.2.5-.4.7-.7.3.4.7.8,1.1,1.2-.6.8-1.4,1.4-2.5,1.6-.8.1-1.5,0-2.1-.3-.7-.4-1.2-.9-1.6-1.6-.4-.7-.5-1.4-.6-2.2,0-.8,0-1.7.3-2.5.3-1,.9-1.7,1.8-2.2.7-.3,1.4-.4,2.2-.3.6,0,1.1.2,1.6.5.3.2.6.5.9.8,0,0,0,.2,0,.2-.3.4-.6.7-.9,1.1h0s0,0,0,0ZM46.8,38.5v3.5h2.1v1.6h-2.1s0,0,0,.1c0,1.6,0,3.2,0,4.8,0,.9.5,1,1.2.9.3,0,.5-.1.7-.2,0,0,.1,0,.2,0,0,.4-.1.7-.1,1.1,0,.6-.5.6-.8.7-.3,0-.7.1-1.1.1-.7,0-1.3-.4-1.6-1.2-.1-.4-.2-.8-.2-1.2v-5.1h-1.2v-1.6h1.2c0-.8,0-1.5,0-2.3,0-.2,0-.3.3-.4.4-.2.8-.4,1.2-.7,0,0,.1,0,.2,0,0,0,0,0,0,0ZM62.5,34.4c0,.4,0,.8-.1,1.1,0,0,0,.1,0,.2,0,0,0,.2-.2.2-.6.3-1.2.4-1.8.3-.8,0-1.3-.6-1.5-1.4,0-.3,0-.6,0-.9,0-1.6,0-3.3,0-4.9v-.3h-1.2v-1.6h1.2v-1.3c0-.4,0-.7,0-1.1,0-.1,0-.2.2-.3.5-.3,1-.5,1.5-.8v3.4h2.1v1.6h-2.1v.3c0,1.6,0,3.2,0,4.8,0,.4.2.8.8.8.4,0,.8,0,1.2-.3,0,0,0,0,.2,0h0ZM60.9,50.8h-1.7v-11.3c0-.1,0-.2.1-.3.5-.3,1-.5,1.4-.8,0,0,0,0,.1,0v12.4h0ZM32.9,39v11.9h-1.7v-11.9h1.7ZM65,50.8h-1.7v-.3c0-3.7,0-7.3,0-11,0-.2,0-.3.2-.4.5-.2.9-.5,1.5-.8v12.4s0,0,0,0ZM87,36.1h-1.7c0,0,0-.1,0-.2v-11c0-.2,0-.3.2-.4.4-.2.9-.5,1.3-.7,0,0,0,0,.1,0v12.4h0,0ZM51.9,23.7v12.4h-1.7v-.3c0-3.6,0-7.3,0-10.9,0-.2,0-.3.2-.4.4-.2.8-.4,1.2-.6,0,0,.2,0,.3-.1h0ZM69.1,50.8h-1.7v-8.9h1.7v8.9h0ZM66.1,36.1h-1.7v-8.9h1.7v8.9h0ZM56,36.1h-1.7v-8.9h1.7v8.9ZM68.3,38.5c.6,0,1.1.5,1.1,1.1,0,.6-.6,1.2-1.1,1.1-.7,0-1.1-.4-1.1-1.2,0-.6.4-1,1.1-1ZM65.3,23.8c.7,0,1.1.4,1.1,1.1,0,.5-.5,1.1-1.1,1.1-.7,0-1.1-.5-1.1-1.1,0-.6.5-1.2,1.1-1.1ZM56.2,24.9c0,.6-.5,1.1-1.1,1.1-.7,0-1.1-.5-1.1-1.1,0-.7.4-1.1,1.2-1.1.5,0,1.1.6,1,1.1h0s0,0,0,0ZM14.5,45.5c.4.1,1.4,1.1,1.3.1,0-.9,0-1.9,0-2.8,0-.2,0-.3.3-.3.7.3,1.9.7,2.6,1,.3.1.5.2.8.3.4.1.6.5.6.8,0,1.2,0,2.3,0,3.5s.9.9,1.4,1.3c.8.5,1.7.9,2.5,1.4.3.2.4-.1.4-.4,0-1.4,0-2.8,0-4.2,0-.4-.2-.7-.6-.8-.8-.3-1.5-.6-2.2-.8-.5-.3-1.5-.3-1.5-1.1v-3.6c0-.3.1-.5.5-.4.8.2,1.5.3,2.3.5.4,0,1.3.5,1.5,0,.1-1.4,0-2.9,0-4.3,0-.3-.1-.6-.4-.7-.4,0-.8,0-1.2,0h-2.3c-.4-.1-.5-.2-.5-.6,0-1.1,0-2.2,0-3.3,0-.7,0-.8.7-.9.9-.1,1.8-.3,2.7-.4.7,0,.9-.2.9-1v-3.9c0-.5-.2-.6-.6-.5-1,.4-2,.7-3,1-.5,0-.7.3-.7.8,0,1.2,0,2.3,0,3.5,0,.1,0,.3,0,.4,0,.3-.4.2-.6.3-1.1.2-2.3.3-3.4.5-.2,0-.2-.2-.2-.4,0-.9,0-1.9,0-2.8,0-.4,0-.5-.4-.4-.2,0-.5.1-.7.2-1,.3-1.9.7-2.9,1-.2,0-.3.3-.3.5,0,.8,0,1.7,0,2.5-.4.4-1,.3-1.5.5-.8.1-1.7.3-2.5.4-.2,0-.3.1-.3.3,0,.6,0,1.2,0,1.8,0,.2,0,.3.2.3.8,0,1.7,0,2.6.1.4,0,1.5-.3,1.5.4v2.2c0,.2-.1.4-.3.3-.4,0-.7-.1-1.1-.2-.8-.2-1.7-.4-2.5-.5-.2,0-.3,0-.3.3v1.6c0,.2.2.5.4.5,1.1.4,2.2.8,3.3,1.2.6.2.7.3.6.9,0,.7,0,1.3,0,2,0,.2,0,.3.2.4l2.8,1.7h0s0,0,0,0ZM16.2,38.5c-.2-.1-.3-.3-.3-.6,0-.9,0-1.9,0-2.8,0-.2,0-.3.2-.4h3.4c.5,0,.6.2.6.7v3.3c0,.9-.9.4-1.4.4l-2.6-.5h0ZM11.6,31.9c0-.1,0-.2,0-.3.3,0,.7-.2,1-.3.7-.1,1.5-.2,2.2-.3.3,0,1-.3,1,.3,0,1,0,2,0,3,0,.3-.1.4-.4.4-.7,0-1.4,0-2.1,0-.5,0-1,0-1.6,0-.2,0-.3-.2-.3-.4,0-.7,0-1.5,0-2.2h0ZM15.4,42.2c-1.2-.4-2.3-.9-3.5-1.4-.3-.1-.3-.4-.3-.7,0-.7,0-1.4,0-2.2,0-.2,0-.3.3-.3.5,0,1,.2,1.5.3.4,0,.9.2,1.3.3.5.1,1.3,0,1.2.7v2.8c0,.3-.2.5-.5.3h0Z"/>
</svg>