<?xml version="1.0" encoding="UTF-8"?>
<svg id="Calque_1" xmlns="http://www.w3.org/2000/svg" version="1.1" viewBox="0 0 120 77.8">
  <!-- Generator: Adobe Illustrator 29.7.1, SVG Export Plug-In . SVG Version: 2.1.1 Build 8)  -->
  <defs>
    <style>
      .st0, .st1, .st2, .st3, .st4, .st5 {
        fill: #fff;
      }

      .st6 {
        display: none;
      }

      .st1 {
        opacity: .7;
      }

      .st1, .st2, .st3, .st4, .st5 {
        isolation: isolate;
      }

      .st2 {
        opacity: .9;
      }

      .st3 {
        opacity: .8;
      }

      .st4 {
        opacity: .6;
      }

      .st5 {
        opacity: .5;
      }
    </style>
  </defs>
  <g id="Calque_11" data-name="Calque_1" class="st6">
    <path class="st0" d="M74.2,54.1c-.2-.4-.4-.8-.5-1.3.5,0,1,0,1.5-.2.4,0,.9-.3,1.1-.7.2-.3.3-.6.3-1v-.8c-.2.2-.4.3-.7.5-.7.5-1.5.6-2.4.4-.9-.2-1.5-.8-1.9-1.7-.3-.5-.4-1.1-.5-1.7v-2.3c0-1,.5-2,1.3-2.7.7-.6,1.6-.9,2.5-.7.7,0,1.2.4,1.7,1v-.8h1.7v8.3c0,.8,0,1.7-.6,2.4-.4.7-1,1.1-1.8,1.3-.6.2-1.2.3-1.8.2h0v-.2h.1ZM76.6,46.4v-2c-.3-.4-.7-.7-1.2-.9-.9-.4-1.9,0-2.3.7-.2.4-.3.9-.4,1.4v1.4c0,.5.2.9.4,1.4.3.6.8.9,1.5.9s1.4-.5,1.9-1.1v-1.9h0ZM31.2,24.2h5c.7,0,1.3.2,1.9.5.8.5,1.3,1.2,1.5,2.1.2,1,.2,2-.3,3s-1.3,1.5-2.4,1.7c-.6.1-1.2,0-1.8,0h-2.2v4.4h-1.7v-11.9s0,.2,0,.2ZM32.9,30h3.4c.8,0,1.3-.5,1.5-1.2v-.9c0-1-.6-1.9-1.7-1.9h-3.3c-1.1,0,0,0,0,0v4h0ZM81.3,30.6v-1c0-.5-.5-.9-1.1-1-1-.2-1.9,0-2.8.5-.2-.4-.4-.9-.7-1.3.5-.4,1.1-.6,1.7-.7.5,0,1-.1,1.6,0,.9,0,1.7.3,2.3,1,.4.5.6,1.1.6,1.7v6.3h-1.7v-.8c-.4.2-.7.5-1.1.7-.8.4-1.7.4-2.6,0s-1.4-1-1.6-2c-.2-.8,0-1.6.4-2.4.4-.6,1-.9,1.6-1.1s1.2-.2,1.8-.1c.5,0,1,.2,1.5.2h0ZM81.3,32.9v-.4c0-.2,0-.3-.2-.3-.4,0-.7-.2-1.1-.3-.5,0-1.1,0-1.6.2s-.8.6-.8,1.2.2,1.1.8,1.3c.9.3,1.7,0,2.4-.4.3-.3.6-.6.5-1.1h0s0-.2,0-.2ZM111.1,48.7c.3.4.7.7,1,1.1-.7.7-1.4,1.1-2.4,1.1h-.8c-.8,0-1.6-.4-2.2-1-.7-.7-1.1-1.6-1.3-2.6v-2.1c0-.7.3-1.4.7-2.1.5-.9,1.3-1.4,2.2-1.6,1-.2,2,0,2.9.6.8.6,1.1,1.4,1.4,2.3.2.8,0,1.5,0,2.3h-5.7c0,.7.4,1.7,1.1,2.2.8.5,1.9.3,2.9-.4h0v.2h.2ZM111.1,45.5c0-.7-.2-1.3-.7-1.8s-1-.5-1.5-.5c-1,0-1.9,1.3-1.7,2.2h4-.1ZM55.9,48.7c.3.4.7.7,1,1.1-.3.4-.8.6-1.2.8-.6.3-1.3.4-2,.3-.7,0-1.3-.3-1.9-.7-.9-.7-1.3-1.6-1.5-2.7v-2c0-.9.3-1.8.9-2.5.5-.7,1.2-1.1,2-1.3,1-.2,2,0,2.9.6.8.6,1.2,1.4,1.4,2.4.2.7,0,1.5,0,2.2h-5.7c0,.9.3,1.7,1.1,2.1,1,.6,2,.3,2.9-.4h0ZM55.9,45.5c0-1.4-.7-2.2-2.1-2.2s-1.9,1.1-1.8,2.2h3.9,0ZM87.2,47h-5.7c0,1,.8,2.3,1.8,2.4.7,0,1.4,0,2-.5.2,0,.3-.2.4,0,.2.3.5.6.9,1-.3.2-.7.5-1,.7-.4.3-1,.4-1.5.4-.8,0-1.5,0-2.2-.4s-1.1-.9-1.5-1.6c-.4-.8-.6-1.6-.6-2.5s0-1.5.3-2.3c.5-1.4,1.4-2.3,2.8-2.5,1.1-.2,2.2,0,3,.8.5.5.8,1.1,1,1.8.2.6.3,1.3.2,2v.6h0ZM85.6,45.5c0-1.9-1.1-2.3-2.2-2.2-1,0-1.9,1.2-1.7,2.2,0,0,3.9,0,3.9,0ZM48.3,31.5c0,.9-.2,1.7-.5,2.5-.4.8-1,1.5-1.9,1.9-.6.3-1.2.4-1.9.3-.7,0-1.3-.3-1.9-.8-.9-.7-1.3-1.7-1.5-2.7-.2-1.2,0-2.4.3-3.5.5-1.2,1.4-2,2.6-2.2,1.2-.2,2.4,0,3.3.9.6.6,1,1.3,1.2,2.2,0,.4,0,.9.2,1.3h.1ZM46.5,31.5v-.5c0-.6-.3-1.2-.7-1.7-.5-.6-1.2-.7-1.9-.6-.7.2-1.1.7-1.4,1.3-.2.6-.3,1.3-.3,2s0,.9.3,1.3c.3.7.8,1.2,1.6,1.3.7,0,1.4-.2,1.8-.9.4-.6.6-1.4.6-2.2h0ZM37.2,50.8h-1.7v-8.9h1.7v.8c.3-.4.6-.6,1-.8.5-.2,1.1-.2,1.6-.2s.9.2,1.3.5c.6.4.9,1.1,1.1,1.8,0,.5.2,1.1.2,1.7v5.1h-1.7v-5c0-.5,0-.9-.2-1.3-.3-.9-1.2-1.2-2.1-1-.7.2-1.1.9-1.2,1.4v5.9h0ZM90.5,50.8h-1.7v-8.9h1.7v.7h.2c.3-.4.8-.6,1.3-.7.7-.2,1.4,0,2.1.2.9.4,1.4,1.2,1.6,2.2,0,.6,0,1.2.2,1.8v4.8h-1.7v-5.1c0-.5,0-1.1-.3-1.6-.2-.5-.6-.7-1.1-.8-.5,0-.9,0-1.3.2-.5.3-.7.8-.8,1.3v5.8h0l-.2.2h0ZM73.9,29.7c-.4-.3-.7-.6-1.1-.8-1.1-.6-2.3-.2-2.8,1-.4,1.2-.4,2.4,0,3.6.5,1.1,1.9,1.4,2.9.6.3-.2.5-.4.7-.7.3.4.7.8,1.1,1.2-.6.8-1.4,1.4-2.5,1.6-1,0-1.8,0-2.6-.7-.8-.7-1.3-1.6-1.5-2.6,0-.5-.2-1,0-1.4,0-.8.2-1.6.5-2.4.5-1.1,1.4-1.9,2.6-2.1,1.4-.2,2.6.2,3.6,1.3v.3c-.3.4-.6.7-.9,1.1h0ZM103.1,44.5c-.4-.4-.7-.7-1.2-.9-1.1-.4-2.1-.2-2.6,1-.5,1.1-.4,2.3,0,3.5.5,1.3,1.9,1.6,2.9.8.3-.2.5-.4.7-.7.3.4.7.8,1.1,1.2-.6.8-1.4,1.4-2.5,1.6-.8,0-1.5,0-2.1-.3-.7-.4-1.2-.9-1.6-1.6-.4-.7-.5-1.4-.6-2.2,0-.8,0-1.7.3-2.5.3-1,.9-1.7,1.8-2.2.7-.3,1.4-.4,2.2-.3.6,0,1.1.2,1.6.5.3.2.6.5.9.8v.2c-.3.4-.6.7-.9,1.1h0ZM46.8,38.5v3.5h2.1v1.6h-2.1v4.9c0,.9.5,1,1.2.9.3,0,.5,0,.7-.2h.2v1.1c0,.6-.5.6-.8.7h-1.1c-.7,0-1.3-.4-1.6-1.2,0-.4-.2-.8-.2-1.2v-5.1h-1.2v-1.6h1.2v-2.3c0-.2,0-.3.3-.4.4-.2.8-.4,1.2-.7h.2-.1ZM62.5,34.4v1.3s0,.2-.2.2c-.6.3-1.2.4-1.8.3-.8,0-1.3-.6-1.5-1.4v-6.1h-1.2v-1.6h1.2v-2.4c0-.1,0-.2.2-.3.5-.3,1-.5,1.5-.8v3.4h2.1v1.6h-2.1v5.1c0,.4.2.8.8.8s.8,0,1.2-.3h.2l-.3.2h-.1ZM60.9,50.8h-1.7v-11.6c.5-.3,1-.5,1.4-.8h0v12.4h.3ZM32.9,39v11.9h-1.7v-11.9h1.7ZM65,50.8h-1.7v-11.3c0-.2,0-.3.2-.4.5-.2.9-.5,1.5-.8v12.4h0ZM87,36.1h-1.7v-11.2c0-.2,0-.3.2-.4.4-.2.9-.5,1.3-.7h0v12.4h.2ZM51.9,23.7v12.4h-1.7v-11.2c0-.2,0-.3.2-.4l1.2-.6s.2,0,.3-.1h0ZM69.1,50.8h-1.7v-8.9h1.7v8.9h0ZM66.1,36.1h-1.7v-8.9h1.7v8.9h0ZM56,36.1h-1.7v-8.9h1.7v8.9ZM68.3,38.5c.6,0,1.1.5,1.1,1.1s-.6,1.2-1.1,1.1c-.7,0-1.1-.4-1.1-1.2s.4-1,1.1-1ZM65.3,23.8c.7,0,1.1.4,1.1,1.1s-.5,1.1-1.1,1.1-1.1-.5-1.1-1.1.5-1.2,1.1-1.1ZM56.2,24.9c0,.6-.5,1.1-1.1,1.1s-1.1-.5-1.1-1.1.4-1.1,1.2-1.1,1.1.6,1,1.1h0ZM14.5,45.5c.4,0,1.4,1.1,1.3,0v-2.8c0-.2,0-.3.3-.3.7.3,1.9.7,2.6,1,.3,0,.5.2.8.3.4,0,.6.5.6.8v3.5c0,1.2.9.9,1.4,1.3.8.5,1.7.9,2.5,1.4.3.2.4,0,.4-.4v-4.2c0-.4-.2-.7-.6-.8-.8-.3-1.5-.6-2.2-.8-.5-.3-1.5-.3-1.5-1.1v-3.6c0-.3.1-.5.5-.4.8.2,1.5.3,2.3.5.4,0,1.3.5,1.5,0,.1-1.4,0-2.9,0-4.3s-.1-.6-.4-.7h-3.5c-.4,0-.5-.2-.5-.6v-3.3c0-.7,0-.8.7-.9.9-.1,1.8-.3,2.7-.4.7,0,.9-.2.9-1v-3.9c0-.5-.2-.6-.6-.5-1,.4-2,.7-3,1-.5,0-.7.3-.7.8v3.9c0,.3-.4.2-.6.3-1.1.2-2.3.3-3.4.5-.2,0-.2-.2-.2-.4v-2.8c0-.4,0-.5-.4-.4-.2,0-.5.1-.7.2-1,.3-1.9.7-2.9,1-.2,0-.3.3-.3.5v2.5c-.4.4-1,.3-1.5.5-.8,0-1.7.3-2.5.4-.2,0-.3,0-.3.3v1.8c0,.2,0,.3.2.3h2.6c.4,0,1.5-.3,1.5.4v2.2c0,.2-.1.4-.3.3-.4,0-.7,0-1.1-.2-.8-.2-1.7-.4-2.5-.5-.2,0-.3,0-.3.3v1.6c0,.2.2.5.4.5,1.1.4,2.2.8,3.3,1.2.6.2.7.3.6.9v2c0,.2,0,.3.2.4l2.8,1.7h0v-.2.2ZM16.2,38.5c-.2,0-.3-.3-.3-.6v-2.8c0-.2,0-.3.2-.4h3.4c.5,0,.6.2.6.7v3.3c0,.9-.9.4-1.4.4l-2.6-.5h.1ZM11.6,31.9v-.3c.3,0,.7-.2,1-.3.7-.1,1.5-.2,2.2-.3.3,0,1-.3,1,.3v3c0,.3-.1.4-.4.4h-3.7c-.2,0-.3-.2-.3-.4v-2.2h0s.2-.2.2-.2ZM15.4,42.2c-1.2-.4-2.3-.9-3.5-1.4-.3,0-.3-.4-.3-.7v-2.2c0-.2,0-.3.3-.3.5,0,1,.2,1.5.3.4,0,.9.2,1.3.3.5,0,1.3,0,1.2.7v2.8c0,.3-.2.5-.5.3h0v.2Z"/>
  </g>
  <g id="bf5a322f-d4b5-48b5-91ff-458c96328565">
    <path class="st4" d="M29,42.6v2.9c0,.2-.1.4-.3.5l-2.5,1.4c-.2.1-.4.1-.6,0l-3.5-2c-.2-.1-.3-.3-.3-.5h0c0-.2.1-.4.3-.5l1-.6c.7-.4,1.1-1.1,1.1-1.9v-1.2c0-.2.1-.4.3-.5h0c.2-.1.4-.1.6,0l3.5,2c.2.1.3.3.3.5Z"/>
    <path class="st5" d="M29,32.4v2.9c0,.2-.1.4-.3.5l-3.5,2c-.2.1-.4.1-.6,0h0c-.2-.1-.3-.3-.3-.5v-1.2c0-.8-.4-1.5-1.1-1.9l-1-.6c-.2-.1-.3-.3-.3-.5h0c0-.2.1-.4.3-.5l3.5-2c.2-.1.4-.1.6,0l2.5,1.4c.2,0,.3.3.3.5Z"/>
    <path class="st0" d="M14.3,26.7l2.5-1.4c.2-.1.4-.1.6,0l2.5,1.4c.2.1.3.3.3.5v4.1c0,.2-.1.4-.3.5h0c-.2.1-.4.1-.6,0l-1-.6c-.7-.4-1.5-.4-2.2,0l-1,.6c-.2.1-.4.1-.6,0h0c-.2-.1-.3-.3-.3-.5v-4.1c0-.2.1-.4.3-.5Z"/>
    <path class="st2" d="M5.1,35.2v-2.9c0-.2.1-.4.3-.5l2.5-1.4c.2-.1.4-.1.6,0l3.5,2c.2.1.3.3.3.5h0c0,.2-.1.4-.3.5l-1,.6c-.7.4-1.1,1.1-1.1,1.9v1.2c0,.2-.1.4-.3.5h0c-.2.1-.4.1-.6,0l-3.5-2c-.2-.1-.3-.3-.3-.5Z"/>
    <path class="st3" d="M5.1,45.4v-2.9c0-.2.1-.4.3-.5l3.5-2c.2-.1.4-.1.6,0h0c.2.1.3.3.3.5v1.2c0,.8.4,1.5,1.1,1.9l1,.6c.2.1.3.3.3.5h0c0,.2-.1.4-.3.5l-3.5,2c-.2.1-.4.1-.6,0l-2.5-1.4c-.2-.1-.3-.3-.3-.6Z"/>
    <path class="st1" d="M19.9,51.1l-2.5,1.4c-.2.1-.4.1-.6,0l-2.5-1.4c-.2-.1-.3-.3-.3-.5v-4.1c0-.2.1-.4.3-.5h0c.2-.1.4-.1.6,0l1,.6c.7.4,1.5.4,2.2,0l1-.6c.2-.1.4-.1.6,0h0c.2.1.3.3.3.5v4.1c0,.2-.1.4-.3.5Z"/>
    <path class="st0" d="M45.3,33.8v-6.4h1.3v5.2h2.5v1.3s-3.8,0-3.8,0Z"/>
    <path class="st0" d="M84.5,42.1v-6.4h1.3v5.2h2.5v1.3h-3.8Z"/>
    <path class="st0" d="M54.8,32.3h-2.6l-.5,1.5h-1.3l2.5-6.4h1.4l2.4,6.4h-1.4l-.5-1.5ZM52.6,31.2h1.8l-.9-2.4-.9,2.4Z"/>
    <path class="st0" d="M68.9,33.8v-6.4h1.3v6.4h-1.3Z"/>
    <path class="st0" d="M77.7,33.8v-6.4h1.3v6.4h-1.3Z"/>
    <path class="st0" d="M86.5,33.8v-6.4h2.3c1.8,0,3.2,1.2,3.2,3.2s-1.3,3.2-3.2,3.2h-2.3ZM88.8,32.6c1.1,0,1.9-.7,1.9-2.1s-.9-2.1-1.9-2.1h-1v4.1h1Z"/>
    <path class="st0" d="M43.6,42.1v-4.5l-1.9,4.5h-1l-1.9-4.5v4.5h-1.2v-6.4h1.6l1.9,4.6,1.9-4.6h1.7v6.4h-1.2s0,0,0,0Z"/>
    <path class="st0" d="M50.5,40.6h-2.6l-.5,1.5h-1.3l2.5-6.4h1.4l2.4,6.4h-1.4l-.5-1.5ZM48.3,39.5h1.8l-.9-2.4-.9,2.4Z"/>
    <path class="st0" d="M55.6,39.7h-.7v2.5h-1.3v-6.4h2.5c1.3,0,2.1.9,2.1,2,0,.9-.5,1.6-1.4,1.8l1.4,2.6h-1.4l-1.3-2.5ZM55.9,38.6c.6,0,1-.4,1-.9s-.4-.9-1-.9h-1v1.8h1Z"/>
    <path class="st0" d="M61.6,39.4l-.8.9v1.8h-1.3v-6.4h1.3v2.9l2.6-2.9h1.6l-2.6,2.8,2.6,3.6h-1.6l-1.9-2.7Z"/>
    <path class="st0" d="M75.6,36.9v5.2h-1.3v-5.2h-1.9v-1.3h5v1.3h-1.9Z"/>
    <path class="st0" d="M80,39.7v2.4h-1.3v-6.4h2.4c1.3,0,2.1.8,2.1,2s-.8,2-2.1,2h-1.1s0,0,0,0ZM81,38.6c.6,0,1-.4,1-.9s-.4-.9-1-.9h-1v1.9h1Z"/>
    <path class="st0" d="M94,40.6h-2.6l-.5,1.5h-1.3l2.5-6.4h1.4l2.4,6.4h-1.4l-.5-1.5ZM91.8,39.5h1.8l-.9-2.4-.9,2.4Z"/>
    <path class="st0" d="M37.6,50.4v-6.4h5v1.3h-3.8v1.3h2.5v1.3h-2.5v1.3h3.8v1.2h-5s0,0,0,0Z"/>
    <path class="st0" d="M66.2,42.1v-6.4h5v1.3h-3.8v1.3h2.5v1.3h-2.5v1.3h3.8v1.2h-5Z"/>
    <path class="st0" d="M104.1,42.1v-6.4h5v1.3h-3.8v1.3h2.5v1.3h-2.5v1.3h3.8v1.2h-5Z"/>
    <path class="st0" d="M80.2,33.8v-6.4h5v1.3h-3.8v1.3h2.5v1.3h-2.5v1.3h3.8v1.2h-5Z"/>
    <path class="st0" d="M71.4,33.8v-6.4h5v1.3h-3.8v1.3h2.5v1.3h-2.5v2.6h-1.2Z"/>
    <path class="st0" d="M69,50.4v-6.4h5v1.3h-3.8v1.3h2.5v1.3h-2.5v1.3h3.8v1.2s-5,0-5,0Z"/>
    <path class="st0" d="M43.9,48v-4h1.3v3.9c0,.8.5,1.3,1.2,1.3s1.2-.4,1.2-1.3v-3.9h1.3v4c0,1.6-1.1,2.4-2.5,2.4s-2.5-.9-2.5-2.4Z"/>
    <path class="st0" d="M52,48h-.7v2.5h-1.3v-6.4h2.5c1.3,0,2.1.9,2.1,2,0,.9-.5,1.6-1.4,1.8l1.4,2.6h-1.4l-1.3-2.5ZM52.4,46.9c.6,0,1-.4,1-.9s-.4-.9-1-.9h-1v1.8h1Z"/>
    <path class="st0" d="M58.8,44c1.7,0,3.2,1.2,3.2,3.2,0,1.8-1.4,3.2-3.2,3.2-1.8,0-3.2-1.4-3.2-3.2h0c0-2,1.5-3.2,3.2-3.2ZM58.8,49.3c1,0,1.9-.7,1.9-2.1s-1-2.1-1.9-2.1-1.9.7-1.9,2.1,1,2.1,1.9,2.1Z"/>
    <path class="st0" d="M64.4,48v2.4h-1.3v-6.4h2.4c1.3,0,2.1.8,2.1,2s-.8,2-2.1,2h-1.1s0,0,0,0ZM65.4,46.9c.6,0,1-.4,1-.9s-.4-.9-1-.9h-1v1.9s1,0,1,0Z"/>
    <path class="st0" d="M40.8,32.5c-1.1,0-2-.9-2-2s.9-2,2-2c.8,0,1.6.5,1.9,1.3h1.3c-.3-1.7-2-2.8-3.7-2.5-1.7.3-2.8,2-2.5,3.7.3,1.7,2,2.8,3.7,2.5,1.3-.3,2.3-1.2,2.5-2.5h-1.3c-.3.8-1,1.3-1.9,1.3Z"/>
    <path class="st0" d="M99.7,40.9c-1.1,0-2-.9-2-2s.9-2,2-2c.8,0,1.6.5,1.9,1.3h1.3c-.3-1.7-2-2.8-3.7-2.5-1.7.3-2.8,2-2.5,3.7.3,1.7,2,2.8,3.7,2.5,1.3-.3,2.3-1.2,2.5-2.5h-1.3c-.3.8-1,1.3-1.8,1.3Z"/>
    <path class="st0" d="M60.2,30.1l-.9-.2c-.4,0-.7-.4-.7-.7s.4-.8,1-.8c.5,0,1,.3,1.1.9h1.1c0-1-.8-1.9-2.3-1.9s-2.2.8-2.2,1.9.6,1.6,1.6,1.8l.9.2c.5.1.8.4.8.7s-.4.8-1,.8-1.1-.4-1.3-.9h-1.2c.1.9.8,1.9,2.5,1.9s2.2-1,2.2-1.9c0-.9-.6-1.6-1.7-1.8Z"/>
    <path class="st0" d="M65.9,30.1l-.9-.2c-.4,0-.7-.4-.7-.7s.4-.8,1-.8c.5,0,1,.3,1.1.9h1.1c0-1-.8-1.9-2.3-1.9s-2.2.8-2.2,1.9.6,1.6,1.6,1.8l.9.2c.5.1.8.4.8.7s-.4.8-1,.8-1.1-.4-1.3-.9h-1.2c.1.9.8,1.9,2.5,1.9s2.2-1,2.2-1.9c0-.9-.6-1.6-1.7-1.8Z"/>
    <path class="st0" d="M96,30.1l-.9-.2c-.4,0-.7-.4-.7-.7s.4-.8,1-.8c.5,0,1,.3,1.1.9h1.1c0-1-.8-1.9-2.3-1.9s-2.2.8-2.2,1.9.6,1.6,1.6,1.8l.9.2c.5.1.8.4.8.7s-.4.8-1,.8-1.1-.4-1.3-.9h-1.2c.1.9.8,1.9,2.5,1.9s2.2-1,2.2-1.9-.6-1.6-1.7-1.8Z"/>
    <path class="st0" d="M113.1,38.4l-.9-.2c-.4,0-.7-.4-.7-.7s.4-.8,1-.8c.5,0,1,.3,1.1.9h1.1c0-1-.8-1.9-2.3-1.9s-2.2.8-2.2,1.9.6,1.6,1.6,1.8l.9.2c.5.1.8.4.8.7s-.4.8-1,.8-1.1-.4-1.3-.9h-1.2c.1.9.8,1.9,2.5,1.9s2.2-1,2.2-1.9c0-.9-.6-1.6-1.7-1.8Z"/>
  </g>
</svg>