<?xml version="1.0" encoding="UTF-8"?>
<svg id="Calque_1" xmlns="http://www.w3.org/2000/svg" version="1.1" viewBox="0 0 120 77.8">
  <!-- Generator: Adobe Illustrator 29.7.1, SVG Export Plug-In . SVG Version: 2.1.1 Build 8)  -->
  <g>
    <path d="M14.3,50.5h-6.8c-.1,0-.2,0-.2-.2v-16c0,0,0-.2.1-.2l6.8-2.9c.1,0,.3,0,.3.2v18.9c0,.1,0,.2-.2.2h0Z" fill="#fff"/>
    <path d="M24.8,32.8l-2.3-5.4c0-.1-.2-.2-.3-.1l-6.3,2.7c-.1,0-.2.2-.1.3l3.6,8.5c0,.1.2.2.3,0l5-5.7c0,0,0-.1,0-.2h0Z" fill="#fff"/>
    <path d="M23.6,40.5l-7.6-.4c-.2,0-.3.1-.2.3l4.3,10.1c0,.1.2.2.3.1l6.3-2.7c.1,0,.2-.2.1-.3l-3-7c0,0,0-.1-.2-.1h0Z" fill="#fff"/>
  </g>
  <path d="M111.4,37c-.2,0-.3-.3,0-.4l1.3-.5c0,0,.1-.1.1-.2v-1.7c0-.1,0-.2-.2-.2h-1.7c-.1,0-.2,0-.2.2v11.2c0,.1,0,.2.2.2h1.7c.1,0,.2,0,.2-.2v-8.3c0-.1,0-.2-.2-.2h-1.2Z" fill="#fff"/>
  <path d="M63.4,39.9c0,2-.6,3.5-1.7,4.4-1.1,1-2.8,1.4-5.1,1.4s-3.9-.5-5.1-1.4c-1.1-.9-1.7-2.4-1.7-4.4s.6-3.5,1.7-4.4c1.1-.9,2.8-1.4,5.1-1.4s3.9.5,5.1,1.4c1.1.9,1.7,2.4,1.7,4.4h0ZM51.9,39.9c0,1,.2,1.8.5,2.3.3.6.8,1,1.5,1.2.7.2,1.6.4,2.7.4s2-.1,2.7-.4,1.2-.7,1.5-1.2.5-1.3.5-2.3-.2-1.8-.5-2.3c-.3-.6-.8-1-1.5-1.2-.7-.2-1.6-.4-2.7-.4s-2,.1-2.7.4-1.2.6-1.5,1.2c-.3.6-.5,1.3-.5,2.3h0Z" fill="#fff"/>
  <path d="M92.2,38.8c0,2.1-.4,3.7-1.2,5s-2.3,1.9-4.5,1.9-3.6-.6-4.5-1.9c-.8-1.3-1.2-3-1.2-5v-4.5c0-.1,0-.2.2-.2h1.7c.1,0,.2,0,.2.2v4.5c0,.9,0,1.7.3,2.5s.5,1.4,1,1.8c.3.3.7.5,1.1.6.4.1.8.2,1.3.2s.9,0,1.3-.2c.4-.1.7-.3,1.1-.6.5-.4.8-1,1-1.8.2-.8.3-1.7.3-2.5v-4.5c0-.1,0-.2.2-.2h1.7c.1,0,.2,0,.2.2v4.5h0Z" fill="#fff"/>
  <path d="M77.8,40.9h0c-.2-.4-.6-.8-1-.9h-.6c-.2-.2-.2-.5,0-.5l.8-.2c.3,0,.6-.3.8-.6h0c.2-.4.2-.8.2-1.3,0-.9-.2-1.6-.7-2.1-.5-.5-1-.8-1.8-1s-1.6-.2-2.5-.2h-6.7c-.1,0-.2,0-.2.2v11.2c0,.1,0,.2.2.2h6.7c1,0,1.9,0,2.7-.3.8-.2,1.4-.5,1.8-1.1.2-.3.4-.6.5-.9s.2-.7.2-1c0-.5,0-1-.3-1.5h0ZM68.1,36.2c0-.1,0-.2.2-.2h5.1c0,0,.2,0,.3,0s.2,0,.4,0c.4,0,.7,0,.9.2.3,0,.5.2.6.4.1.2.2.4.2.8,0,.6-.3,1-.9,1.2-.2,0-.5.1-.8.1-.3,0-.6,0-1.1,0h-4.8c-.1,0-.2,0-.2-.2v-2.3h0ZM75.1,43.6c-.2,0-.5.1-.8.1-.3,0-.7,0-1.1,0h-4.9c-.1,0-.2,0-.2-.2v-2.7c0-.1,0-.2.2-.2h5.9c.3,0,.5,0,.6,0,.4,0,.7.3.9.6.2.3.3.6.3,1,0,.6-.3,1.1-.9,1.2h0Z" fill="#fff"/>
  <path d="M47.3,45.4l-2.8-3c-.5-.5-1-.9-1.6-1.1h0c-.2,0-.1-.4,0-.4h.8c.3,0,.7,0,1-.2.4-.2.8-.4,1.1-.6.6-.5,1-1.3,1-2.3v-.5c0-1.3-.4-2.2-1.3-2.6s-2.1-.7-3.6-.7h-6.7c-.1,0-.2,0-.2.2v11.2c0,.1,0,.2.2.2h1.7c.1,0,.2,0,.2-.2v-4.2c0-.1,0-.2.2-.2h3.1c0,0,.1,0,.1,0l4.3,4.5s0,0,.1,0h2.3c.2,0,.3-.2.1-.3h0ZM37.1,39.1c-.1,0-.2,0-.2-.2v-2.7c0-.1,0-.2.2-.2h5.2c.2,0,.4,0,.5,0h0c.3,0,.6,0,.9.1.6.2.9.6.9,1.2v.4c0,.4-.1.7-.3.9-.2.2-.5.3-.9.4s-.8,0-1.4,0h-4.9Z" fill="#fff"/>
  <path d="M106.4,34.1c0,0-.1,0-.2,0l-3.6,5.4c-.3.5-.8,1.1-.9,1.7,0,0,0,0,0,0h0c0,.2-.3.2-.4,0h0c0,0,0,0,0,0-.1-.6-.6-1.2-1-1.7l-3.6-5.4c0,0,0,0-.2,0h-1.4c-.1,0-.2,0-.2.2v11.2c0,.1,0,.2.2.2h1.7c.1,0,.2,0,.2-.2v-6.5c0-.2.3-.3.4-.1l3.4,5c0,0,0,0,.2,0h1.2c0,0,.1,0,.2,0l3.3-5c.1-.2.4,0,.4.1v6.5c0,.1,0,.2.2.2h1.7c.1,0,.2,0,.2-.2v-11.2c0-.1,0-.2-.2-.2h-1.4,0Z" fill="#fff"/>
</svg>