<?xml version="1.0" encoding="UTF-8"?>
<svg id="Calque_1" xmlns="http://www.w3.org/2000/svg" version="1.1" viewBox="0 0 66 42.8">
  <!-- Generator: Adobe Illustrator 29.7.1, SVG Export Plug-In . SVG Version: 2.1.1 Build 8)  -->
  <defs>
    <style>
      .st0 {
        fill: #fff;
      }
    </style>
  </defs>
  <g>
    <circle class="st0" cx="60" cy="25.4" r="2.8"/>
    <circle class="st0" cx="60" cy="17.5" r="2.8"/>
  </g>
  <g>
    <path class="st0" d="M13.9,15.1h1.7s-4.3,12.7-4.3,12.7h-3.1s-4.3-12.7-4.3-12.7h1.7s3.7,11.2,3.7,11.2h.8s3.7-11.2,3.7-11.2Z"/>
    <path class="st0" d="M26.2,16.6h-7.2v4h6.8s0,1.5,0,1.5h-6.8v4.1h7.2s0,1.5,0,1.5h-8.8s0-12.7,0-12.7h8.8s0,1.5,0,1.5Z"/>
    <path class="st0" d="M40.1,27.8h-1s-.4-1.3-.4-1.3c-.5.5-1,.9-1.7,1.2-.7.3-1.4.4-2.2.4h-1.5c-1,0-1.9-.2-2.8-.7-.8-.5-1.4-1.1-1.9-2s-.7-2-.7-3.3v-1.2c0-1.3.2-2.4.7-3.3.5-.9,1.1-1.6,1.9-2,.8-.5,1.7-.7,2.8-.7h1.5c1.3,0,2.4.4,3.3,1.1.9.7,1.5,1.8,1.8,3.1h-1.7c-.3-.8-.8-1.5-1.4-2s-1.5-.7-2.7-.7-2.7.4-3.4,1.3c-.7.9-1,2-1,3.3v.9c0,1.4.3,2.5,1,3.3.7.8,1.8,1.3,3.4,1.3s2.4-.3,3.1-1c.7-.7,1.1-1.5,1.2-2.6h0s-4.2,0-4.2,0v-1.5s5.9,0,5.9,0v6.5Z"/>
    <path class="st0" d="M51.5,27.8l-1.4-4h-5.6s-1.4,4-1.4,4h-1.7s4.5-12.7,4.5-12.7h3s4.5,12.7,4.5,12.7h-1.7ZM44.9,22.2h4.6s-2-5.6-2-5.6h-.6s-2,5.6-2,5.6Z"/>
  </g>
</svg>