<?xml version="1.0" encoding="UTF-8"?>
<svg id="Calque_1" xmlns="http://www.w3.org/2000/svg" version="1.1" viewBox="0 0 120 77.8">
  <!-- Generator: Adobe Illustrator 29.7.1, SVG Export Plug-In . SVG Version: 2.1.1 Build 8)  -->
  <defs>
    <style>
      .st0 {
        fill: #fff;
      }

      .st1 {
        fill: none;
        stroke: #fff;
        stroke-miterlimit: 10;
        stroke-width: .3px;
      }

      .st2 {
        display: none;
      }
    </style>
  </defs>
  <g id="Calque_11" class="st2">
    <path class="st0" d="M74.2,54.1c-.2-.4-.4-.8-.5-1.3.5,0,1,0,1.5-.2.4,0,.9-.3,1.1-.7.2-.3.3-.6.3-1v-.8c-.2.2-.4.3-.7.5-.7.5-1.5.6-2.4.4-.9-.2-1.5-.8-1.9-1.7-.3-.5-.4-1.1-.5-1.7v-2.3c0-1,.5-2,1.3-2.7.7-.6,1.6-.9,2.5-.7.7,0,1.2.4,1.7,1v-.8h1.7v8.3c0,.8,0,1.7-.6,2.4-.4.7-1,1.1-1.8,1.3-.6.2-1.2.3-1.8.2h0v-.2h.1ZM76.6,46.4v-2c-.3-.4-.7-.7-1.2-.9-.9-.4-1.9,0-2.3.7-.2.4-.3.9-.4,1.4v1.4c0,.5.2.9.4,1.4.3.6.8.9,1.5.9s1.4-.5,1.9-1.1v-1.9h0ZM31.2,24.2h5c.7,0,1.3.2,1.9.5.8.5,1.3,1.2,1.5,2.1.2,1,.2,2-.3,3s-1.3,1.5-2.4,1.7c-.6.1-1.2,0-1.8,0h-2.2v4.4h-1.7v-11.9s0,.2,0,.2ZM32.9,30h3.4c.8,0,1.3-.5,1.5-1.2v-.9c0-1-.6-1.9-1.7-1.9h-3.3c-1.1,0,0,0,0,0v4h0ZM81.3,30.6v-1c0-.5-.5-.9-1.1-1-1-.2-1.9,0-2.8.5-.2-.4-.4-.9-.7-1.3.5-.4,1.1-.6,1.7-.7.5,0,1-.1,1.6,0,.9,0,1.7.3,2.3,1,.4.5.6,1.1.6,1.7v6.3h-1.7v-.8c-.4.2-.7.5-1.1.7-.8.4-1.7.4-2.6,0s-1.4-1-1.6-2c-.2-.8,0-1.6.4-2.4.4-.6,1-.9,1.6-1.1s1.2-.2,1.8-.1c.5,0,1,.2,1.5.2h0ZM81.3,32.9v-.4c0-.2,0-.3-.2-.3-.4,0-.7-.2-1.1-.3-.5,0-1.1,0-1.6.2s-.8.6-.8,1.2.2,1.1.8,1.3c.9.3,1.7,0,2.4-.4.3-.3.6-.6.5-1.1h0s0-.2,0-.2ZM111.1,48.7c.3.4.7.7,1,1.1-.7.7-1.4,1.1-2.4,1.1h-.8c-.8,0-1.6-.4-2.2-1-.7-.7-1.1-1.6-1.3-2.6v-2.1c0-.7.3-1.4.7-2.1.5-.9,1.3-1.4,2.2-1.6,1-.2,2,0,2.9.6.8.6,1.1,1.4,1.4,2.3.2.8,0,1.5,0,2.3h-5.7c0,.7.4,1.7,1.1,2.2.8.5,1.9.3,2.9-.4h0v.2h.2ZM111.1,45.5c0-.7-.2-1.3-.7-1.8s-1-.5-1.5-.5c-1,0-1.9,1.3-1.7,2.2h4-.1ZM55.9,48.7c.3.4.7.7,1,1.1-.3.4-.8.6-1.2.8-.6.3-1.3.4-2,.3-.7,0-1.3-.3-1.9-.7-.9-.7-1.3-1.6-1.5-2.7v-2c0-.9.3-1.8.9-2.5.5-.7,1.2-1.1,2-1.3,1-.2,2,0,2.9.6.8.6,1.2,1.4,1.4,2.4.2.7,0,1.5,0,2.2h-5.7c0,.9.3,1.7,1.1,2.1,1,.6,2,.3,2.9-.4h0ZM55.9,45.5c0-1.4-.7-2.2-2.1-2.2s-1.9,1.1-1.8,2.2h3.9,0ZM87.2,47h-5.7c0,1,.8,2.3,1.8,2.4.7,0,1.4,0,2-.5.2,0,.3-.2.4,0,.2.3.5.6.9,1-.3.2-.7.5-1,.7-.4.3-1,.4-1.5.4-.8,0-1.5,0-2.2-.4s-1.1-.9-1.5-1.6c-.4-.8-.6-1.6-.6-2.5s0-1.5.3-2.3c.5-1.4,1.4-2.3,2.8-2.5,1.1-.2,2.2,0,3,.8.5.5.8,1.1,1,1.8.2.6.3,1.3.2,2v.6h0ZM85.6,45.5c0-1.9-1.1-2.3-2.2-2.2-1,0-1.9,1.2-1.7,2.2,0,0,3.9,0,3.9,0ZM48.3,31.5c0,.9-.2,1.7-.5,2.5-.4.8-1,1.5-1.9,1.9-.6.3-1.2.4-1.9.3-.7,0-1.3-.3-1.9-.8-.9-.7-1.3-1.7-1.5-2.7-.2-1.2,0-2.4.3-3.5.5-1.2,1.4-2,2.6-2.2,1.2-.2,2.4,0,3.3.9.6.6,1,1.3,1.2,2.2,0,.4,0,.9.2,1.3h.1ZM46.5,31.5v-.5c0-.6-.3-1.2-.7-1.7-.5-.6-1.2-.7-1.9-.6-.7.2-1.1.7-1.4,1.3-.2.6-.3,1.3-.3,2s0,.9.3,1.3c.3.7.8,1.2,1.6,1.3.7,0,1.4-.2,1.8-.9.4-.6.6-1.4.6-2.2h0ZM37.2,50.8h-1.7v-8.9h1.7v.8c.3-.4.6-.6,1-.8.5-.2,1.1-.2,1.6-.2s.9.2,1.3.5c.6.4.9,1.1,1.1,1.8,0,.5.2,1.1.2,1.7v5.1h-1.7v-5c0-.5,0-.9-.2-1.3-.3-.9-1.2-1.2-2.1-1-.7.2-1.1.9-1.2,1.4v5.9h0ZM90.5,50.8h-1.7v-8.9h1.7v.7h.2c.3-.4.8-.6,1.3-.7.7-.2,1.4,0,2.1.2.9.4,1.4,1.2,1.6,2.2,0,.6,0,1.2.2,1.8v4.8h-1.7v-5.1c0-.5,0-1.1-.3-1.6-.2-.5-.6-.7-1.1-.8-.5,0-.9,0-1.3.2-.5.3-.7.8-.8,1.3v5.8h0l-.2.2h0ZM73.9,29.7c-.4-.3-.7-.6-1.1-.8-1.1-.6-2.3-.2-2.8,1-.4,1.2-.4,2.4,0,3.6.5,1.1,1.9,1.4,2.9.6.3-.2.5-.4.7-.7.3.4.7.8,1.1,1.2-.6.8-1.4,1.4-2.5,1.6-1,0-1.8,0-2.6-.7-.8-.7-1.3-1.6-1.5-2.6,0-.5-.2-1,0-1.4,0-.8.2-1.6.5-2.4.5-1.1,1.4-1.9,2.6-2.1,1.4-.2,2.6.2,3.6,1.3v.3c-.3.4-.6.7-.9,1.1h0ZM103.1,44.5c-.4-.4-.7-.7-1.2-.9-1.1-.4-2.1-.2-2.6,1-.5,1.1-.4,2.3,0,3.5.5,1.3,1.9,1.6,2.9.8.3-.2.5-.4.7-.7.3.4.7.8,1.1,1.2-.6.8-1.4,1.4-2.5,1.6-.8,0-1.5,0-2.1-.3-.7-.4-1.2-.9-1.6-1.6-.4-.7-.5-1.4-.6-2.2,0-.8,0-1.7.3-2.5.3-1,.9-1.7,1.8-2.2.7-.3,1.4-.4,2.2-.3.6,0,1.1.2,1.6.5.3.2.6.5.9.8v.2c-.3.4-.6.7-.9,1.1h0ZM46.8,38.5v3.5h2.1v1.6h-2.1v4.9c0,.9.5,1,1.2.9.3,0,.5,0,.7-.2h.2v1.1c0,.6-.5.6-.8.7h-1.1c-.7,0-1.3-.4-1.6-1.2,0-.4-.2-.8-.2-1.2v-5.1h-1.2v-1.6h1.2v-2.3c0-.2,0-.3.3-.4.4-.2.8-.4,1.2-.7h.2-.1ZM62.5,34.4v1.3s0,.2-.2.2c-.6.3-1.2.4-1.8.3-.8,0-1.3-.6-1.5-1.4v-6.1h-1.2v-1.6h1.2v-2.4c0-.1,0-.2.2-.3.5-.3,1-.5,1.5-.8v3.4h2.1v1.6h-2.1v5.1c0,.4.2.8.8.8s.8,0,1.2-.3h.2l-.3.2h-.1ZM60.9,50.8h-1.7v-11.6c.5-.3,1-.5,1.4-.8h0v12.4s.3,0,.3,0ZM32.9,39v11.9h-1.7v-11.9h1.7ZM65,50.8h-1.7v-11.3c0-.2,0-.3.2-.4.5-.2.9-.5,1.5-.8v12.4h0ZM87,36.1h-1.7v-11.2c0-.2,0-.3.2-.4.4-.2.9-.5,1.3-.7h0v12.4h.2ZM51.9,23.7v12.4h-1.7v-11.2c0-.2,0-.3.2-.4l1.2-.6s.2,0,.3-.1h0ZM69.1,50.8h-1.7v-8.9h1.7v8.9h0ZM66.1,36.1h-1.7v-8.9h1.7v8.9h0ZM56,36.1h-1.7v-8.9h1.7v8.9ZM68.3,38.5c.6,0,1.1.5,1.1,1.1s-.6,1.2-1.1,1.1c-.7,0-1.1-.4-1.1-1.2s.4-1,1.1-1ZM65.3,23.8c.7,0,1.1.4,1.1,1.1s-.5,1.1-1.1,1.1-1.1-.5-1.1-1.1.5-1.2,1.1-1.1ZM56.2,24.9c0,.6-.5,1.1-1.1,1.1s-1.1-.5-1.1-1.1.4-1.1,1.2-1.1,1.1.6,1,1.1h0ZM14.5,45.5c.4,0,1.4,1.1,1.3,0v-2.8c0-.2,0-.3.3-.3.7.3,1.9.7,2.6,1,.3,0,.5.2.8.3.4,0,.6.5.6.8v3.5c0,1.2.9.9,1.4,1.3.8.5,1.7.9,2.5,1.4.3.2.4,0,.4-.4v-4.2c0-.4-.2-.7-.6-.8-.8-.3-1.5-.6-2.2-.8-.5-.3-1.5-.3-1.5-1.1v-3.6c0-.3.1-.5.5-.4.8.2,1.5.3,2.3.5.4,0,1.3.5,1.5,0,.1-1.4,0-2.9,0-4.3s-.1-.6-.4-.7h-3.5c-.4,0-.5-.2-.5-.6v-3.3c0-.7,0-.8.7-.9.9-.1,1.8-.3,2.7-.4.7,0,.9-.2.9-1v-3.9c0-.5-.2-.6-.6-.5-1,.4-2,.7-3,1-.5,0-.7.3-.7.8v3.9c0,.3-.4.2-.6.3-1.1.2-2.3.3-3.4.5-.2,0-.2-.2-.2-.4v-2.8c0-.4,0-.5-.4-.4-.2,0-.5.1-.7.2-1,.3-1.9.7-2.9,1-.2,0-.3.3-.3.5v2.5c-.4.4-1,.3-1.5.5-.8,0-1.7.3-2.5.4-.2,0-.3,0-.3.3v1.8c0,.2,0,.3.2.3h2.6c.4,0,1.5-.3,1.5.4v2.2c0,.2-.1.4-.3.3-.4,0-.7,0-1.1-.2-.8-.2-1.7-.4-2.5-.5-.2,0-.3,0-.3.3v1.6c0,.2.2.5.4.5,1.1.4,2.2.8,3.3,1.2.6.2.7.3.6.9v2c0,.2,0,.3.2.4l2.8,1.7h0v-.2.2h0ZM16.2,38.5c-.2,0-.3-.3-.3-.6v-2.8c0-.2,0-.3.2-.4h3.4c.5,0,.6.2.6.7v3.3c0,.9-.9.4-1.4.4l-2.6-.5h.1ZM11.6,31.9v-.3c.3,0,.7-.2,1-.3.7-.1,1.5-.2,2.2-.3.3,0,1-.3,1,.3v3c0,.3-.1.4-.4.4h-3.7c-.2,0-.3-.2-.3-.4v-2.2h0s.2-.2.2-.2ZM15.4,42.2c-1.2-.4-2.3-.9-3.5-1.4-.3,0-.3-.4-.3-.7v-2.2c0-.2,0-.3.3-.3.5,0,1,.2,1.5.3.4,0,.9.2,1.3.3.5,0,1.3,0,1.2.7v2.8c0,.3-.2.5-.5.3h0v.2Z"/>
  </g>
  <g>
    <g>
      <path class="st1" d="M25.2,51c4.6-4.3,4.8-11.5.6-16-4.3-4.6-11.5-4.8-16.1-.6-4.6,4.3-4.8,11.5-.6,16,4.3,4.6,11.5,4.8,16.1.6Z"/>
      <path class="st0" d="M29.2,38.9c0-.3-.3-.4-.5-.5-.2-.1-.8-.1-.8-.1.4,1.9-1,4.2-3.6,5.9-4.6,3-11.6,3.8-16.3-.5,4.1-.8,12.6-3.7,15.8-9.5,3.7-6.7-2.9-11.5-4.6-11.5s-.6.1-.6.3c-.1.3-.2.7-.1,1.1,2.1,2,2.7,3.8,2.4,5.4-2.5,3.6-11.1,5.7-14.1,7.2-1,1.8-1.6,3.8-1.6,6,0,6.8,5.5,12.4,12.4,12.4s12.4-5.5,12.4-12.4-.2-2.6-.6-3.8h0Z"/>
    </g>
    <g>
      <path class="st0" d="M93.5,40.9c0,2.3-.9,4-2.8,4s-2.9-.7-2.9-3.5.3-4.5,2.8-4.5,2.9,2.6,2.9,4M87.8,46.2v-1.3h0c.4.6,1.1,1.6,2.9,1.6,3.6,0,4.6-3.4,4.6-5.9s-1.6-5.2-4.4-5.2c-1.2,0-2.3.5-3,1.6h0v-5.5h-1.8v14.7h1.7Z"/>
      <path class="st0" d="M37.8,36.8c0-1.4.5-4,3.1-4s3.1,2.6,3.1,4-.5,4-3.1,4-3.1-2.6-3.1-4ZM35.9,36.8c0,2.7,1.5,5.6,4.9,5.6s4.9-2.8,4.9-5.6-1.5-5.6-4.9-5.6-4.9,2.8-4.9,5.6Z"/>
      <path class="st0" d="M47.3,42.1h-1.8v-10.5h1.7v1.7h0c.7-1.2,1.6-2,2.9-2s.3,0,.5,0v1.8h-.7c-1.6,0-2.7,1.3-2.7,2.8v6.1h0Z"/>
      <path class="st0" d="M69.3,36.8c0-1.4.1-3.9,2.9-3.9s2.8,2.8,2.8,4.5c0,2.8-1.7,3.5-2.9,3.5-1.9,0-2.8-1.8-2.8-4.1ZM76.7,31.6h-1.7v1.5h0c-.4-.6-1.2-1.8-3.1-1.8-2.8,0-4.4,2.3-4.4,5.2s1,5.9,4.6,5.9,2.3-.7,2.8-1.4h0c0,0,0,.4,0,.4,0,1.3,0,3.7-3,3.7s-2,0-2.4-1.7h-1.8c.3,2.8,2.8,3.1,4,3.1,4.9,0,4.9-3.8,4.9-5.3v-9.7h0Z"/>
      <path class="st0" d="M78.4,36c0-1.6,1.3-3.2,2.9-3.2s2.8,1.5,2.9,3.2h-5.8ZM84.2,38.8c0,.8-1,2.1-2.7,2.1s-3.1-1.3-3.1-3.4h7.7c0-3.7-1.5-6.2-4.5-6.2s-5,2.6-5,5.9,1.7,5.3,4.7,5.3,2.4-.4,2.9-.7c1.3-.9,1.8-2.4,1.9-2.9h-1.8Z"/>
      <path class="st0" d="M97.1,31.6h-1.8v14.7h1.8v-14.7Z"/>
      <path class="st0" d="M98.8,36c0-1.6,1.3-3.2,2.9-3.2s2.8,1.5,2.9,3.2h-5.8ZM104.5,38.8c0,.8-1,2.1-2.7,2.1s-3.1-1.3-3.1-3.4h7.7c0-3.7-1.5-6.2-4.5-6.2s-5,2.6-5,5.9,1.7,5.3,4.7,5.3,2.4-.4,2.9-.7c1.3-.9,1.8-2.4,1.9-2.9h-1.8Z"/>
      <path class="st0" d="M113,42.1v-1.6h0c-.7,1.2-1.6,1.8-3.3,1.8s-3.4-.8-3.4-3.3v-7.6h1.8v7c0,1.7.9,2.3,2,2.3,2.2,0,2.9-2,2.9-3.5v-5.8h1.8v10.5h-1.7Z"/>
      <path class="st0" d="M63.9,31.3c-1.8,0-2.8,1.2-3.2,1.8h0v-1.5h-1.7v9.2c-.1,0-.2,0-.3,0-.4,0-.6-.2-.6-.6v-6c0-2.7-3.1-2.9-3.9-2.9-2.6,0-4.3,1-4.3,3.5h1.6c.1-.8.4-2,2.4-2s2.5.6,2.5,1.7-.5,1.2-.9,1.2l-2.9.4c-2.9.4-3.2,2.4-3.2,3.3,0,1.8,1.4,3,3.3,3s3.1-1,3.8-1.7h0c0,.8.3,1.5,1.8,1.5h2.5v-5.9c0-2.9,1.8-3.5,2.8-3.5,1.7,0,2.2.9,2.2,2.8v6.5h1.8v-7.2c0-3-2-3.7-3.7-3.7ZM56.4,38.5c0,1.4-1.6,2.5-3.2,2.5s-1.9-.7-1.9-1.8,1.4-1.6,2.2-1.7c2.2-.3,2.6-.4,2.9-.7v1.8Z"/>
    </g>
  </g>
</svg>