<?xml version="1.0" encoding="UTF-8"?>
<svg id="Calque_1" xmlns="http://www.w3.org/2000/svg" version="1.1" viewBox="0 0 120 77.8">
  <!-- Generator: Adobe Illustrator 29.7.1, SVG Export Plug-In . SVG Version: 2.1.1 Build 8)  -->
  <defs>
    <style>
      .st0 {
        fill: #fff;
      }

      .st1 {
        display: none;
      }
    </style>
  </defs>
  <g id="Calque_11" data-name="Calque_1" class="st1">
    <path class="st0" d="M74.2,54.1c-.2-.4-.4-.8-.5-1.3.5,0,1,0,1.5-.2.4,0,.9-.3,1.1-.7.2-.3.3-.6.3-1v-.8c-.2.2-.4.3-.7.5-.7.5-1.5.6-2.4.4-.9-.2-1.5-.8-1.9-1.7-.3-.5-.4-1.1-.5-1.7v-2.3c0-1,.5-2,1.3-2.7.7-.6,1.6-.9,2.5-.7.7,0,1.2.4,1.7,1v-.8h1.7v8.3c0,.8,0,1.7-.6,2.4-.4.7-1,1.1-1.8,1.3-.6.2-1.2.3-1.8.2h0v-.2h.1ZM76.6,46.4v-2c-.3-.4-.7-.7-1.2-.9-.9-.4-1.9,0-2.3.7-.2.4-.3.9-.4,1.4v1.4c0,.5.2.9.4,1.4.3.6.8.9,1.5.9s1.4-.5,1.9-1.1v-1.9h0ZM31.2,24.2h5c.7,0,1.3.2,1.9.5.8.5,1.3,1.2,1.5,2.1.2,1,.2,2-.3,3s-1.3,1.5-2.4,1.7c-.6.1-1.2,0-1.8,0h-2.2v4.4h-1.7v-11.9s0,.2,0,.2ZM32.9,30h3.4c.8,0,1.3-.5,1.5-1.2v-.9c0-1-.6-1.9-1.7-1.9h-3.3c-1.1,0,0,0,0,0v4h0ZM81.3,30.6v-1c0-.5-.5-.9-1.1-1-1-.2-1.9,0-2.8.5-.2-.4-.4-.9-.7-1.3.5-.4,1.1-.6,1.7-.7.5,0,1-.1,1.6,0,.9,0,1.7.3,2.3,1,.4.5.6,1.1.6,1.7v6.3h-1.7v-.8c-.4.2-.7.5-1.1.7-.8.4-1.7.4-2.6,0s-1.4-1-1.6-2c-.2-.8,0-1.6.4-2.4.4-.6,1-.9,1.6-1.1s1.2-.2,1.8-.1c.5,0,1,.2,1.5.2h0ZM81.3,32.9v-.4c0-.2,0-.3-.2-.3-.4,0-.7-.2-1.1-.3-.5,0-1.1,0-1.6.2s-.8.6-.8,1.2.2,1.1.8,1.3c.9.3,1.7,0,2.4-.4.3-.3.6-.6.5-1.1h0s0-.2,0-.2ZM111.1,48.7c.3.4.7.7,1,1.1-.7.7-1.4,1.1-2.4,1.1h-.8c-.8,0-1.6-.4-2.2-1-.7-.7-1.1-1.6-1.3-2.6v-2.1c0-.7.3-1.4.7-2.1.5-.9,1.3-1.4,2.2-1.6,1-.2,2,0,2.9.6.8.6,1.1,1.4,1.4,2.3.2.8,0,1.5,0,2.3h-5.7c0,.7.4,1.7,1.1,2.2.8.5,1.9.3,2.9-.4h0v.2h.2ZM111.1,45.5c0-.7-.2-1.3-.7-1.8s-1-.5-1.5-.5c-1,0-1.9,1.3-1.7,2.2h4-.1ZM55.9,48.7c.3.4.7.7,1,1.1-.3.4-.8.6-1.2.8-.6.3-1.3.4-2,.3-.7,0-1.3-.3-1.9-.7-.9-.7-1.3-1.6-1.5-2.7v-2c0-.9.3-1.8.9-2.5.5-.7,1.2-1.1,2-1.3,1-.2,2,0,2.9.6.8.6,1.2,1.4,1.4,2.4.2.7,0,1.5,0,2.2h-5.7c0,.9.3,1.7,1.1,2.1,1,.6,2,.3,2.9-.4h0ZM55.9,45.5c0-1.4-.7-2.2-2.1-2.2s-1.9,1.1-1.8,2.2h3.9,0ZM87.2,47h-5.7c0,1,.8,2.3,1.8,2.4.7,0,1.4,0,2-.5.2,0,.3-.2.4,0,.2.3.5.6.9,1-.3.2-.7.5-1,.7-.4.3-1,.4-1.5.4-.8,0-1.5,0-2.2-.4s-1.1-.9-1.5-1.6c-.4-.8-.6-1.6-.6-2.5s0-1.5.3-2.3c.5-1.4,1.4-2.3,2.8-2.5,1.1-.2,2.2,0,3,.8.5.5.8,1.1,1,1.8.2.6.3,1.3.2,2v.6h0ZM85.6,45.5c0-1.9-1.1-2.3-2.2-2.2-1,0-1.9,1.2-1.7,2.2,0,0,3.9,0,3.9,0ZM48.3,31.5c0,.9-.2,1.7-.5,2.5-.4.8-1,1.5-1.9,1.9-.6.3-1.2.4-1.9.3-.7,0-1.3-.3-1.9-.8-.9-.7-1.3-1.7-1.5-2.7-.2-1.2,0-2.4.3-3.5.5-1.2,1.4-2,2.6-2.2,1.2-.2,2.4,0,3.3.9.6.6,1,1.3,1.2,2.2,0,.4,0,.9.2,1.3h.1ZM46.5,31.5v-.5c0-.6-.3-1.2-.7-1.7-.5-.6-1.2-.7-1.9-.6-.7.2-1.1.7-1.4,1.3-.2.6-.3,1.3-.3,2s0,.9.3,1.3c.3.7.8,1.2,1.6,1.3.7,0,1.4-.2,1.8-.9.4-.6.6-1.4.6-2.2h0ZM37.2,50.8h-1.7v-8.9h1.7v.8c.3-.4.6-.6,1-.8.5-.2,1.1-.2,1.6-.2s.9.2,1.3.5c.6.4.9,1.1,1.1,1.8,0,.5.2,1.1.2,1.7v5.1h-1.7v-5c0-.5,0-.9-.2-1.3-.3-.9-1.2-1.2-2.1-1-.7.2-1.1.9-1.2,1.4v5.9h0ZM90.5,50.8h-1.7v-8.9h1.7v.7h.2c.3-.4.8-.6,1.3-.7.7-.2,1.4,0,2.1.2.9.4,1.4,1.2,1.6,2.2,0,.6,0,1.2.2,1.8v4.8h-1.7v-5.1c0-.5,0-1.1-.3-1.6-.2-.5-.6-.7-1.1-.8-.5,0-.9,0-1.3.2-.5.3-.7.8-.8,1.3v5.8h0l-.2.2h0ZM73.9,29.7c-.4-.3-.7-.6-1.1-.8-1.1-.6-2.3-.2-2.8,1-.4,1.2-.4,2.4,0,3.6.5,1.1,1.9,1.4,2.9.6.3-.2.5-.4.7-.7.3.4.7.8,1.1,1.2-.6.8-1.4,1.4-2.5,1.6-1,0-1.8,0-2.6-.7-.8-.7-1.3-1.6-1.5-2.6,0-.5-.2-1,0-1.4,0-.8.2-1.6.5-2.4.5-1.1,1.4-1.9,2.6-2.1,1.4-.2,2.6.2,3.6,1.3v.3c-.3.4-.6.7-.9,1.1h0ZM103.1,44.5c-.4-.4-.7-.7-1.2-.9-1.1-.4-2.1-.2-2.6,1-.5,1.1-.4,2.3,0,3.5.5,1.3,1.9,1.6,2.9.8.3-.2.5-.4.7-.7.3.4.7.8,1.1,1.2-.6.8-1.4,1.4-2.5,1.6-.8,0-1.5,0-2.1-.3-.7-.4-1.2-.9-1.6-1.6-.4-.7-.5-1.4-.6-2.2,0-.8,0-1.7.3-2.5.3-1,.9-1.7,1.8-2.2.7-.3,1.4-.4,2.2-.3.6,0,1.1.2,1.6.5.3.2.6.5.9.8v.2c-.3.4-.6.7-.9,1.1h0ZM46.8,38.5v3.5h2.1v1.6h-2.1v4.9c0,.9.5,1,1.2.9.3,0,.5,0,.7-.2h.2v1.1c0,.6-.5.6-.8.7h-1.1c-.7,0-1.3-.4-1.6-1.2,0-.4-.2-.8-.2-1.2v-5.1h-1.2v-1.6h1.2v-2.3c0-.2,0-.3.3-.4.4-.2.8-.4,1.2-.7h.2-.1ZM62.5,34.4v1.3s0,.2-.2.2c-.6.3-1.2.4-1.8.3-.8,0-1.3-.6-1.5-1.4v-6.1h-1.2v-1.6h1.2v-2.4c0-.1,0-.2.2-.3.5-.3,1-.5,1.5-.8v3.4h2.1v1.6h-2.1v5.1c0,.4.2.8.8.8s.8,0,1.2-.3h.2l-.3.2h-.1ZM60.9,50.8h-1.7v-11.6c.5-.3,1-.5,1.4-.8h0v12.4h.3ZM32.9,39v11.9h-1.7v-11.9h1.7ZM65,50.8h-1.7v-11.3c0-.2,0-.3.2-.4.5-.2.9-.5,1.5-.8v12.4h0ZM87,36.1h-1.7v-11.2c0-.2,0-.3.2-.4.4-.2.9-.5,1.3-.7h0v12.4h.2ZM51.9,23.7v12.4h-1.7v-11.2c0-.2,0-.3.2-.4l1.2-.6s.2,0,.3-.1h0ZM69.1,50.8h-1.7v-8.9h1.7v8.9h0ZM66.1,36.1h-1.7v-8.9h1.7v8.9h0ZM56,36.1h-1.7v-8.9h1.7v8.9ZM68.3,38.5c.6,0,1.1.5,1.1,1.1s-.6,1.2-1.1,1.1c-.7,0-1.1-.4-1.1-1.2s.4-1,1.1-1ZM65.3,23.8c.7,0,1.1.4,1.1,1.1s-.5,1.1-1.1,1.1-1.1-.5-1.1-1.1.5-1.2,1.1-1.1ZM56.2,24.9c0,.6-.5,1.1-1.1,1.1s-1.1-.5-1.1-1.1.4-1.1,1.2-1.1,1.1.6,1,1.1h0ZM14.5,45.5c.4,0,1.4,1.1,1.3,0v-2.8c0-.2,0-.3.3-.3.7.3,1.9.7,2.6,1,.3,0,.5.2.8.3.4,0,.6.5.6.8v3.5c0,1.2.9.9,1.4,1.3.8.5,1.7.9,2.5,1.4.3.2.4,0,.4-.4v-4.2c0-.4-.2-.7-.6-.8-.8-.3-1.5-.6-2.2-.8-.5-.3-1.5-.3-1.5-1.1v-3.6c0-.3.1-.5.5-.4.8.2,1.5.3,2.3.5.4,0,1.3.5,1.5,0,.1-1.4,0-2.9,0-4.3s-.1-.6-.4-.7h-3.5c-.4,0-.5-.2-.5-.6v-3.3c0-.7,0-.8.7-.9.9-.1,1.8-.3,2.7-.4.7,0,.9-.2.9-1v-3.9c0-.5-.2-.6-.6-.5-1,.4-2,.7-3,1-.5,0-.7.3-.7.8v3.9c0,.3-.4.2-.6.3-1.1.2-2.3.3-3.4.5-.2,0-.2-.2-.2-.4v-2.8c0-.4,0-.5-.4-.4-.2,0-.5.1-.7.2-1,.3-1.9.7-2.9,1-.2,0-.3.3-.3.5v2.5c-.4.4-1,.3-1.5.5-.8,0-1.7.3-2.5.4-.2,0-.3,0-.3.3v1.8c0,.2,0,.3.2.3h2.6c.4,0,1.5-.3,1.5.4v2.2c0,.2-.1.4-.3.3-.4,0-.7,0-1.1-.2-.8-.2-1.7-.4-2.5-.5-.2,0-.3,0-.3.3v1.6c0,.2.2.5.4.5,1.1.4,2.2.8,3.3,1.2.6.2.7.3.6.9v2c0,.2,0,.3.2.4l2.8,1.7h0v-.2.2ZM16.2,38.5c-.2,0-.3-.3-.3-.6v-2.8c0-.2,0-.3.2-.4h3.4c.5,0,.6.2.6.7v3.3c0,.9-.9.4-1.4.4l-2.6-.5h.1ZM11.6,31.9v-.3c.3,0,.7-.2,1-.3.7-.1,1.5-.2,2.2-.3.3,0,1-.3,1,.3v3c0,.3-.1.4-.4.4h-3.7c-.2,0-.3-.2-.3-.4v-2.2h0s.2-.2.2-.2ZM15.4,42.2c-1.2-.4-2.3-.9-3.5-1.4-.3,0-.3-.4-.3-.7v-2.2c0-.2,0-.3.3-.3.5,0,1,.2,1.5.3.4,0,.9.2,1.3.3.5,0,1.3,0,1.2.7v2.8c0,.3-.2.5-.5.3h0v.2Z"/>
  </g>
  <g>
    <g>
      <path class="st0" d="M15.5,47.7H5.3c0,0-.2,0-.2-.2v-17.2c0,0,0-.2.2-.2h10c0,0,.2,0,.2.2v1.3c0,0,0,.2-.2.2H7.1c0,0-.2,0-.2.2v5.8c0,0,0,.2.2.2h7.5c0,0,.2,0,.2.2v1.3c0,0,0,.2-.2.2h-7.5c0,0-.2,0-.2.2v6.4c0,0,0,.2.2.2h8.4c0,0,.2,0,.2.2v1.3c0,0,0,.2-.2.2Z"/>
      <path class="st0" d="M19.9,41.4v6.1c0,0,0,.2-.2.2h-1.5c0,0-.2,0-.2-.2v-17.2c0,0,0-.2.2-.2h5.6c3.6,0,6.1,2,6.1,5.5s-2.5,5.6-6.1,5.6h-3.8c0,0-.2,0-.2.2ZM19.9,31.9v7.6c0,0,0,.2.2.2h3.8c2.6,0,4.3-1.4,4.3-4s-1.7-4-4.3-4h-3.8c0,0-.2,0-.2.2Z"/>
      <path class="st0" d="M41,42.8h-8c0,0-.1,0-.1,0l-1.8,4.7c0,0,0,0-.1,0h-1.5c-.1,0-.2-.1-.1-.2l6.7-17.2c0,0,0,0,.1,0h1.8c0,0,.1,0,.1,0l6.7,17.2c0,.1,0,.2-.1.2h-1.6c0,0-.1,0-.1,0l-1.8-4.7c0,0,0,0-.1,0ZM33.7,41.3h6.6c.1,0,.2-.1.1-.2l-3.3-8.6c0-.1-.2-.1-.3,0l-3.3,8.6c0,.1,0,.2.1.2Z"/>
      <path class="st0" d="M72.8,42.8h-8c0,0-.1,0-.1,0l-1.8,4.7c0,0,0,0-.1,0h-1.5c-.1,0-.2-.1-.1-.2l6.7-17.2c0,0,0,0,.1,0h1.8c0,0,.1,0,.1,0l6.7,17.2c0,.1,0,.2-.1.2h-1.6c0,0-.1,0-.1,0l-1.8-4.7c0,0,0,0-.1,0ZM65.5,41.3h6.6c.1,0,.2-.1.1-.2l-3.3-8.6c0-.1-.2-.1-.3,0l-3.3,8.6c0,.1,0,.2.1.2Z"/>
    </g>
    <polygon class="st0" points="77.2 30.2 76.6 30.2 83 47.6 83.6 47.6 77.2 30.2"/>
    <path class="st0" d="M58.9,42.5c-1,2.4-3.2,3.9-6,3.9-3.9,0-6.7-3.2-6.7-7.5s2.8-7.5,6.7-7.5,5,1.6,6,3.9h2c-1.1-3.4-4.3-5.6-7.9-5.6s-8.6,4-8.6,9.1,3.7,9.2,8.6,9.2,6.8-2.2,7.9-5.6h-2Z"/>
    <g>
      <g>
        <path class="st0" d="M86.3,32.2h-1.5v1h1.7v.4h-2.1v-3.1h2v.4h-1.6v.9h1.5v.4Z"/>
        <path class="st0" d="M88.7,32.9c0,.2,0,.5,0,.7h-.4c0,0,0-.2,0-.3-.1.2-.3.4-.7.4s-.7-.2-.7-.8v-1.5h.4v1.4c0,.3,0,.5.4.5s.5-.2.5-.8v-1.2h.4v1.6Z"/>
        <path class="st0" d="M89.4,32c0-.3,0-.5,0-.6h.4c0,0,0,.2,0,.4.1-.3.4-.5.8-.5v.4c-.5,0-.8.2-.8.8v1.1h-.4v-1.6Z"/>
        <path class="st0" d="M92.9,32.5c0,.7-.4,1.2-1.1,1.2s-1.1-.5-1.1-1.2.4-1.2,1.1-1.2,1,.5,1,1.2ZM91.2,32.5c0,.5.2.8.6.8s.6-.3.6-.8-.2-.8-.6-.8-.6.3-.6.8Z"/>
        <path class="st0" d="M93.8,33.3v1.1h-.4v-2.6c0-.2,0-.4,0-.5h.4c0,0,0,.2,0,.3.1-.2.3-.4.7-.4s.9.4.9,1.1-.4,1.2-1,1.2-.5-.1-.6-.3ZM95,32.4c0-.5-.2-.8-.6-.8s-.6.3-.6.8.1.8.6.8.6-.3.6-.9Z"/>
        <path class="st0" d="M96.3,32.6c0,.4.2.7.6.7s.4-.2.5-.3h.4c0,.3-.3.7-1,.7s-1-.6-1-1.2.3-1.2,1-1.2,1,.6,1,1.1,0,.1,0,.2h-1.6ZM97.4,32.3c0-.3-.2-.6-.5-.6s-.5.3-.6.6h1.1Z"/>
        <path class="st0" d="M100,33.1c0,.2,0,.4,0,.5h-.4s0-.2,0-.3c0,.1-.3.3-.7.3s-.8-.3-.8-.7c0-.5.4-.7,1.1-.7h.4v-.2c0-.2,0-.4-.5-.4s-.4.2-.5.3h-.4c0-.3.2-.7.9-.7.6,0,.9.2.9.7v1.1ZM99.6,32.5h-.3c-.4,0-.7.1-.7.4s.1.4.4.4c.5,0,.6-.3.6-.7h0Z"/>
        <path class="st0" d="M100.7,31.9c0-.2,0-.4,0-.6h.4c0,0,0,.3,0,.4,0-.2.3-.4.7-.4s.8.3.8.9v1.4h-.4v-1.4c0-.3-.1-.5-.5-.5s-.6.3-.6.7v1.2h-.4v-1.7Z"/>
        <path class="st0" d="M85.5,35h1.2c.6,0,1,.3,1,.9s-.4.9-1,.9h-.7v1.2h-.5v-3.1ZM86,36.4h.7c.4,0,.6-.2.6-.5s-.3-.5-.6-.5h-.7v1.1Z"/>
        <path class="st0" d="M90,37.4c0,.2,0,.5,0,.7h-.4c0,0,0-.2,0-.3-.1.2-.3.4-.7.4s-.7-.2-.7-.8v-1.5h.4v1.4c0,.3,0,.5.4.5s.5-.2.5-.8v-1.2h.4v1.6Z"/>
        <path class="st0" d="M90.6,34.8h.4v1.3c.1-.2.3-.4.7-.4.6,0,.9.5.9,1.1s-.3,1.2-1,1.2-.5-.1-.6-.3c0,.1,0,.2,0,.3h-.4c0-.3,0-.5,0-.8v-2.5ZM92.2,36.9c0-.5-.2-.8-.6-.8s-.6.3-.6.8.1.8.6.8.6-.3.6-.9Z"/>
        <path class="st0" d="M93.2,38v-3.2h.4v3.2h-.4Z"/>
        <path class="st0" d="M94.3,34.8h.4v.5h-.4v-.5ZM94.3,35.8h.4v2.3h-.4v-2.3Z"/>
        <path class="st0" d="M97.2,37.3c0,.4-.4.8-.9.8s-1-.5-1-1.2.4-1.2,1-1.2.9.5.9.8h-.4c0-.2-.2-.4-.5-.4s-.6.3-.6.8.2.8.6.8.4-.1.5-.4h.4Z"/>
        <path class="st0" d="M99.2,37.1l-.3.9h-.5l1.1-3.1h.6l1.1,3.1h-.5l-.3-.9h-1.2ZM100.3,36.8c-.3-.8-.4-1.2-.5-1.4h0c0,.3-.3.8-.5,1.4h1Z"/>
        <path class="st0" d="M102.1,36.1v1.9h-.4v-1.9h-.4v-.3h.4v-.3c0-.4.1-.8.7-.8s.2,0,.2,0v.4c0,0-.1,0-.2,0-.2,0-.3.1-.3.4v.3h.8v-.3c0-.4.2-.8.7-.8s.2,0,.2,0v.4c0,0-.1,0-.2,0-.2,0-.3.1-.3.4v.3h.4v.3h-.4v1.9h-.4v-1.9h-.8Z"/>
        <path class="st0" d="M105.8,37.5c0,.2,0,.4,0,.5h-.4s0-.2,0-.3c0,.1-.3.3-.7.3s-.8-.3-.8-.7c0-.5.4-.7,1.1-.7h.4v-.2c0-.2,0-.4-.5-.4s-.4.2-.5.3h-.4c0-.3.2-.7.9-.7.6,0,.9.2.9.7v1.1ZM105.4,36.9h-.3c-.4,0-.7.1-.7.4s.1.4.4.4c.5,0,.6-.3.6-.7h0Z"/>
        <path class="st0" d="M106.4,34.8h.4v.5h-.4v-.5ZM106.4,35.8h.4v2.3h-.4v-2.3Z"/>
        <path class="st0" d="M107.5,36.4c0-.3,0-.5,0-.6h.4c0,0,0,.2,0,.4.1-.3.4-.5.8-.5v.4c-.5,0-.8.2-.8.8v1.1h-.4v-1.6Z"/>
        <path class="st0" d="M109.4,37.4c0,.2.2.4.5.4s.4-.1.4-.3-.1-.3-.5-.4c-.7-.2-.8-.4-.8-.7s.2-.6.8-.6.8.3.9.7h-.4c0-.1-.1-.3-.5-.3s-.4.1-.4.3,0,.2.5.3c.7.2.8.4.8.7s-.3.7-.9.7-.9-.3-.9-.7h.4Z"/>
      </g>
      <g>
        <path class="st0" d="M89,41.5c-.1.5-.5.9-1.2.9s-1.4-.7-1.4-1.6.5-1.6,1.4-1.6,1.1.4,1.2.9h-.5c-.1-.3-.3-.6-.8-.6s-.9.6-.9,1.2.2,1.2.9,1.2.7-.3.8-.6h.5Z"/>
        <path class="st0" d="M91.5,41.3c0,.7-.4,1.2-1.1,1.2s-1.1-.5-1.1-1.2.4-1.2,1.1-1.2,1,.5,1,1.2ZM89.8,41.3c0,.5.2.8.6.8s.6-.3.6-.8-.2-.8-.6-.8-.6.3-.6.8Z"/>
        <path class="st0" d="M92,40.7c0-.2,0-.4,0-.6h.4c0,0,0,.3,0,.4,0-.2.3-.4.7-.4s.8.3.8.9v1.4h-.4v-1.4c0-.3-.1-.5-.5-.5s-.6.3-.6.7v1.2h-.4v-1.7Z"/>
        <path class="st0" d="M94.7,41.7c0,.2.2.4.5.4s.4-.1.4-.3-.1-.3-.5-.4c-.7-.2-.8-.4-.8-.7s.2-.6.8-.6.8.3.9.7h-.4c0-.1-.1-.3-.5-.3s-.4.1-.4.3,0,.2.5.3c.7.2.8.4.8.7s-.3.7-.9.7-.9-.3-.9-.7h.4Z"/>
        <path class="st0" d="M98.4,41.7c0,.2,0,.5,0,.7h-.4c0,0,0-.2,0-.3-.1.2-.3.4-.7.4s-.7-.2-.7-.8v-1.5h.4v1.4c0,.3,0,.5.4.5s.5-.2.5-.8v-1.2h.4v1.6Z"/>
        <path class="st0" d="M99,42.4v-3.2h.4v3.2h-.4Z"/>
        <path class="st0" d="M99.9,40.1h.4v-.7h.4v.7h.5v.3h-.5v1.3c0,.2,0,.3.3.3s.1,0,.2,0v.3c-.1,0-.2,0-.4,0-.4,0-.5-.2-.5-.6v-1.4h-.4v-.3Z"/>
        <path class="st0" d="M103.3,41.9c0,.2,0,.4,0,.5h-.4s0-.2,0-.3c0,.1-.3.3-.7.3s-.8-.3-.8-.7c0-.5.4-.7,1.1-.7h.4v-.2c0-.2,0-.4-.5-.4s-.4.2-.5.3h-.4c0-.3.2-.7.9-.7.6,0,.9.2.9.7v1.1ZM102.9,41.3h-.3c-.4,0-.7.1-.7.4s.1.4.4.4c.5,0,.6-.3.6-.7h0Z"/>
        <path class="st0" d="M103.9,40.7c0-.2,0-.4,0-.6h.4c0,0,0,.3,0,.4,0-.2.3-.4.7-.4s.8.3.8.9v1.4h-.4v-1.4c0-.3-.1-.5-.5-.5s-.6.3-.6.7v1.2h-.4v-1.7Z"/>
        <path class="st0" d="M108.3,41.7c0,.4-.4.8-.9.8s-1-.5-1-1.2.4-1.2,1-1.2.9.5.9.8h-.4c0-.2-.2-.4-.5-.4s-.6.3-.6.8.2.8.6.8.4-.1.5-.4h.4Z"/>
        <path class="st0" d="M108.8,39.1h.4v.5h-.4v-.5ZM108.8,40.1h.4v2.3h-.4v-2.3Z"/>
        <path class="st0" d="M110.1,41.4c0,.4.2.7.6.7s.4-.2.5-.3h.4c0,.3-.3.7-1,.7s-1-.6-1-1.2.3-1.2,1-1.2,1,.6,1,1.1,0,.1,0,.2h-1.6ZM111.3,41.1c0-.3-.2-.6-.5-.6s-.5.3-.6.6h1.1Z"/>
        <path class="st0" d="M112.5,41.7c0,.2.2.4.5.4s.4-.1.4-.3-.1-.3-.5-.4c-.7-.2-.8-.4-.8-.7s.2-.6.8-.6.8.3.9.7h-.4c0-.1-.1-.3-.5-.3s-.4.1-.4.3,0,.2.5.3c.7.2.8.4.8.7s-.3.7-.9.7-.9-.3-.9-.7h.4Z"/>
        <path class="st0" d="M114.2,40.3c.1-.4.2-.9.2-1.2h.5c0,.4-.2.9-.3,1.2h-.4Z"/>
        <path class="st0" d="M89.2,45.9l-.3.9h-.5l1.1-3.1h.6l1.1,3.1h-.5l-.3-.9h-1.2ZM90.3,45.6c-.3-.8-.4-1.2-.5-1.4h0c0,.3-.3.8-.5,1.4h1Z"/>
        <path class="st0" d="M91.9,46.2c0,.2.2.4.5.4s.4-.1.4-.3-.1-.3-.5-.4c-.7-.2-.8-.4-.8-.7s.2-.6.8-.6.8.3.9.7h-.4c0-.1-.1-.3-.5-.3s-.4.1-.4.3,0,.2.5.3c.7.2.8.4.8.7s-.3.7-.9.7-.9-.3-.9-.7h.4Z"/>
        <path class="st0" d="M94.1,46.2c0,.2.2.4.5.4s.4-.1.4-.3-.1-.3-.5-.4c-.7-.2-.8-.4-.8-.7s.2-.6.8-.6.8.3.9.7h-.4c0-.1-.1-.3-.5-.3s-.4.1-.4.3,0,.2.5.3c.7.2.8.4.8.7s-.3.7-.9.7-.9-.3-.9-.7h.4Z"/>
        <path class="st0" d="M97.9,45.7c0,.7-.4,1.2-1.1,1.2s-1.1-.5-1.1-1.2.4-1.2,1.1-1.2,1,.5,1,1.2ZM96.2,45.7c0,.5.2.8.6.8s.6-.3.6-.8-.2-.8-.6-.8-.6.3-.6.8Z"/>
        <path class="st0" d="M100.3,46.1c0,.4-.4.8-.9.8s-1-.5-1-1.2.4-1.2,1-1.2.9.5.9.8h-.4c0-.2-.2-.4-.5-.4s-.6.3-.6.8.2.8.6.8.4-.1.5-.4h.4Z"/>
        <path class="st0" d="M100.7,43.6h.4v.5h-.4v-.5ZM100.7,44.6h.4v2.3h-.4v-2.3Z"/>
        <path class="st0" d="M103.5,46.3c0,.2,0,.4,0,.5h-.4s0-.2,0-.3c0,.1-.3.3-.7.3s-.8-.3-.8-.7c0-.5.4-.7,1.1-.7h.4v-.2c0-.2,0-.4-.5-.4s-.4.2-.5.3h-.4c0-.3.2-.7.9-.7.6,0,.9.2.9.7v1.1ZM103.1,45.7h-.3c-.4,0-.7.1-.7.4s.1.4.4.4c.5,0,.6-.3.6-.7h0Z"/>
        <path class="st0" d="M103.8,44.6h.4v-.7h.4v.7h.5v.3h-.5v1.3c0,.2,0,.3.3.3s.1,0,.2,0v.3c-.1,0-.2,0-.4,0-.4,0-.5-.2-.5-.6v-1.4h-.4v-.3Z"/>
        <path class="st0" d="M105.5,43.6h.4v.5h-.4v-.5ZM105.5,44.6h.4v2.3h-.4v-2.3Z"/>
        <path class="st0" d="M108.6,45.7c0,.7-.4,1.2-1.1,1.2s-1.1-.5-1.1-1.2.4-1.2,1.1-1.2,1,.5,1,1.2ZM106.9,45.7c0,.5.2.8.6.8s.6-.3.6-.8-.2-.8-.6-.8-.6.3-.6.8Z"/>
        <path class="st0" d="M109.1,45.1c0-.2,0-.4,0-.6h.4c0,0,0,.3,0,.4,0-.2.3-.4.7-.4s.8.3.8.9v1.4h-.4v-1.4c0-.3-.1-.5-.5-.5s-.6.3-.6.7v1.2h-.4v-1.7Z"/>
      </g>
    </g>
  </g>
</svg>