<svg width="89" height="36" viewBox="0 0 89 36" fill="none" xmlns="http://www.w3.org/2000/svg">
<g clip-path="url(#clip0_11_2118)">
<path d="M65.2383 12.5929C64.5241 11.0571 63.4959 9.87329 62.1536 9.03874C60.8114 8.20419 59.1704 7.78824 57.2304 7.78824C55.6957 7.78824 54.3737 8.07887 53.267 8.66013C52.1577 9.24138 51.2841 10.0919 50.6458 11.2118L50.233 11.9877H49.2605V7.99888H45.4719V11.9877H47.3662V35.9231H51.1549V24.9673C51.7272 25.9965 52.5351 26.807 53.5861 27.3883C54.7156 28.0149 56.0376 28.3268 57.5495 28.3268C59.3603 28.3268 60.9228 27.9109 62.2321 27.0763C63.544 26.2417 64.5494 25.0579 65.2535 23.5221C65.9575 21.9863 66.3096 20.1652 66.3096 18.0589C66.3096 15.9525 65.9524 14.1314 65.2383 12.5956V12.5929ZM60.9659 23.1968C59.9301 24.426 58.4689 25.0393 56.5846 25.0393C54.8676 25.0393 53.4924 24.5326 52.4541 23.5195C51.8336 22.9116 51.4005 22.181 51.1524 21.3358V14.7766C51.4005 13.9287 51.8336 13.1981 52.4541 12.5929C53.4898 11.5798 54.8676 11.0731 56.5846 11.0731C58.4689 11.0731 59.9301 11.6863 60.9659 12.9156C62.0017 14.1447 62.5209 15.8565 62.5209 18.0562C62.5209 20.2559 62.0017 21.9677 60.9659 23.1968Z" fill="white"/>
<path d="M42.504 12.5929C41.7898 11.0571 40.7616 9.87329 39.4193 9.03874C38.0771 8.20419 36.436 7.78824 34.4961 7.78824C32.9614 7.78824 31.6394 8.07887 30.5328 8.66013C29.4235 9.24138 28.5497 10.0919 27.9115 11.2118L27.4988 11.9877H26.5262V7.99888H22.7375V11.9877H24.6319V35.9231H28.4206V24.9673C28.993 25.9965 29.8009 26.807 30.8518 27.3883C31.9814 28.0149 33.3033 28.3268 34.8153 28.3268C36.626 28.3268 38.1886 27.9109 39.4979 27.0763C40.8097 26.2417 41.8151 25.0579 42.5192 23.5221C43.2232 21.9863 43.5753 20.1652 43.5753 18.0589C43.5753 15.9525 43.2182 14.1314 42.504 12.5956V12.5929ZM38.2316 23.1968C37.1958 24.426 35.7345 25.0393 33.8503 25.0393C32.1332 25.0393 30.7581 24.5326 29.7198 23.5195C29.0993 22.9116 28.6662 22.181 28.4181 21.3358V14.7766C28.6662 13.9287 29.0993 13.1981 29.7198 12.5929C30.7556 11.5798 32.1332 11.0731 33.8503 11.0731C35.7345 11.0731 37.1958 11.6863 38.2316 12.9156C39.2675 14.1447 39.7866 15.8565 39.7866 18.0562C39.7866 20.2559 39.2675 21.9677 38.2316 23.1968Z" fill="white"/>
<path d="M4 12H15V4H19V28H15V16H4V28H0V4H4V12Z" fill="white"/>
<path d="M15 4H4V0H15V4Z" fill="white"/>
<path d="M85 36H74V32H85V36Z" fill="white"/>
<path d="M89 32H85V28H74V24H85V8H89V32Z" fill="white"/>
<path d="M74 24H70V8H74V24Z" fill="white"/>
</g>
<defs>
<clipPath id="clip0_11_2118">
<rect width="89" height="36" fill="white"/>
</clipPath>
</defs>
</svg>
