<svg width="28" height="28" viewBox="0 0 28 28" fill="none" xmlns="http://www.w3.org/2000/svg">
<rect width="20" height="4" transform="matrix(1 -8.74228e-08 -8.74228e-08 -1 8 16)" fill="white"/>
<rect width="4" height="4" transform="matrix(1 -8.74228e-08 -8.74228e-08 -1 16 24)" fill="white"/>
<rect width="4" height="4" transform="matrix(1 -8.74228e-08 -8.74228e-08 -1 12 28)" fill="white"/>
<rect width="4" height="4" transform="matrix(1 -8.74228e-08 -8.74228e-08 -1 4 12)" fill="white"/>
<rect width="4" height="8" transform="matrix(1 -8.74228e-08 -8.74228e-08 -1 2.44784e-06 8)" fill="white"/>
<rect width="4" height="4" transform="matrix(1 -8.74228e-08 -8.74228e-08 -1 16 8)" fill="white"/>
<rect width="4" height="4" transform="matrix(1 -8.74228e-08 -8.74228e-08 -1 12 4)" fill="white"/>
<rect width="4" height="12" transform="matrix(1 -8.74228e-08 -8.74228e-08 -1 20 20)" fill="white"/>
</svg>
